<svg width="9" height="10" viewBox="0 0 9 10" fill="none" xmlns="http://www.w3.org/2000/svg">
<path d="M1.58131 1H3.46367L4.40484 3.35294L3.22837 4.05882C3.73235 5.08072 4.55942 5.90778 5.58131 6.41176L6.2872 5.23529L8.64014 6.17647V8.05882C8.64014 8.30844 8.54098 8.54783 8.36447 8.72434C8.18797 8.90084 7.94858 9 7.69896 9C5.86332 8.88845 4.13197 8.10894 2.83159 6.80855C1.5312 5.50816 0.751689 3.77682 0.640137 1.94118C0.640137 1.69156 0.739296 1.45217 0.915801 1.27566C1.09231 1.09916 1.3317 1 1.58131 1Z" fill="#3F4042"/>
<path d="M1.58131 1H3.46367L4.40484 3.35294L3.22837 4.05882C3.73235 5.08072 4.55942 5.90778 5.58131 6.41176L6.2872 5.23529L8.64014 6.17647V8.05882C8.64014 8.30844 8.54098 8.54783 8.36447 8.72434C8.18797 8.90084 7.94858 9 7.69896 9C5.86332 8.88845 4.13197 8.10894 2.83159 6.80855C1.5312 5.50816 0.751689 3.77682 0.640137 1.94118C0.640137 1.69156 0.739296 1.45217 0.915801 1.27566C1.09231 1.09916 1.3317 1 1.58131 1" stroke="#3F4042" stroke-width="0.2" stroke-linecap="round" stroke-linejoin="round"/>
</svg>
