<svg width="85" height="35" viewBox="0 0 85 35" fill="none" xmlns="http://www.w3.org/2000/svg">
<rect width="85" height="35" rx="12" fill="#386AFF"/>
<path d="M37.8311 12.3359H39.4717L42.5552 20.561L45.6313 12.3359H47.272L43.1997 23H41.896L37.8311 12.3359ZM37.084 12.3359H38.644L38.915 19.4551V23H37.084V12.3359ZM46.459 12.3359H48.0264V23H46.188V19.4551L46.459 12.3359ZM54.501 21.4106V17.6313C54.501 17.3481 54.4497 17.104 54.3472 16.8989C54.2446 16.6938 54.0884 16.5352 53.8784 16.4229C53.6733 16.3105 53.4146 16.2544 53.1021 16.2544C52.814 16.2544 52.5649 16.3032 52.355 16.4009C52.145 16.4985 51.9814 16.6304 51.8643 16.7964C51.7471 16.9624 51.6885 17.1504 51.6885 17.3604H49.9307C49.9307 17.0479 50.0063 16.7451 50.1577 16.4521C50.3091 16.1592 50.5288 15.8979 50.8169 15.6685C51.105 15.439 51.4492 15.2583 51.8496 15.1265C52.25 14.9946 52.6992 14.9287 53.1973 14.9287C53.793 14.9287 54.3203 15.0288 54.7793 15.229C55.2432 15.4292 55.6069 15.7319 55.8706 16.1372C56.1392 16.5376 56.2734 17.0405 56.2734 17.646V21.1689C56.2734 21.5303 56.2979 21.855 56.3467 22.1431C56.4004 22.4263 56.4761 22.6729 56.5737 22.8828V23H54.7646C54.6816 22.8096 54.6157 22.5679 54.5669 22.2749C54.5229 21.9771 54.501 21.689 54.501 21.4106ZM54.7573 18.1807L54.772 19.272H53.5049C53.1777 19.272 52.8896 19.3037 52.6406 19.3672C52.3916 19.4258 52.1841 19.5137 52.0181 19.6309C51.8521 19.748 51.7275 19.8896 51.6445 20.0557C51.5615 20.2217 51.52 20.4097 51.52 20.6196C51.52 20.8296 51.5688 21.0225 51.6665 21.1982C51.7642 21.3691 51.9058 21.5034 52.0913 21.6011C52.2817 21.6987 52.5112 21.7476 52.7798 21.7476C53.1411 21.7476 53.4561 21.6743 53.7246 21.5278C53.998 21.3765 54.2129 21.1934 54.3691 20.9785C54.5254 20.7588 54.6084 20.5513 54.6182 20.356L55.1895 21.1396C55.1309 21.3398 55.0308 21.5547 54.8892 21.7842C54.7476 22.0137 54.562 22.2334 54.3325 22.4434C54.1079 22.6484 53.8369 22.8169 53.5195 22.9487C53.207 23.0806 52.8457 23.1465 52.4355 23.1465C51.918 23.1465 51.4565 23.0439 51.0513 22.8389C50.646 22.6289 50.3286 22.3481 50.0991 21.9966C49.8696 21.6401 49.7549 21.2373 49.7549 20.7881C49.7549 20.3682 49.833 19.9971 49.9893 19.6748C50.1504 19.3477 50.3848 19.0742 50.6924 18.8545C51.0049 18.6348 51.3857 18.4688 51.835 18.3564C52.2842 18.2393 52.7969 18.1807 53.373 18.1807H54.7573ZM59.8916 16.5986V26.0469H58.1265V15.0752H59.7524L59.8916 16.5986ZM65.0552 18.9644V19.1182C65.0552 19.6943 64.9868 20.229 64.8501 20.7222C64.7183 21.2104 64.5205 21.6377 64.2568 22.0039C63.998 22.3652 63.6782 22.646 63.2974 22.8462C62.9165 23.0464 62.4771 23.1465 61.979 23.1465C61.4858 23.1465 61.0537 23.0562 60.6826 22.8755C60.3164 22.6899 60.0063 22.4287 59.7524 22.0918C59.4985 21.7549 59.2935 21.3594 59.1372 20.9053C58.9858 20.4463 58.8784 19.9434 58.8149 19.3965V18.8032C58.8784 18.2222 58.9858 17.6948 59.1372 17.2212C59.2935 16.7476 59.4985 16.3398 59.7524 15.998C60.0063 15.6562 60.3164 15.3926 60.6826 15.207C61.0488 15.0215 61.4761 14.9287 61.9644 14.9287C62.4624 14.9287 62.9043 15.0264 63.29 15.2217C63.6758 15.4121 64.0005 15.6855 64.2642 16.042C64.5278 16.3936 64.7256 16.8184 64.8574 17.3164C64.9893 17.8096 65.0552 18.3589 65.0552 18.9644ZM63.29 19.1182V18.9644C63.29 18.5981 63.2559 18.2588 63.1875 17.9463C63.1191 17.6289 63.0117 17.3506 62.8652 17.1113C62.7188 16.8721 62.5308 16.6865 62.3013 16.5547C62.0767 16.418 61.8057 16.3496 61.4883 16.3496C61.1758 16.3496 60.9072 16.4033 60.6826 16.5107C60.458 16.6133 60.27 16.7573 60.1187 16.9429C59.9673 17.1284 59.8501 17.3457 59.7671 17.5947C59.6841 17.8389 59.6255 18.105 59.5913 18.3931V19.814C59.6499 20.1655 59.75 20.4878 59.8916 20.7808C60.0332 21.0737 60.2334 21.3081 60.4922 21.4839C60.7559 21.6548 61.0928 21.7402 61.5029 21.7402C61.8203 21.7402 62.0913 21.6719 62.3159 21.5352C62.5405 21.3984 62.7236 21.2104 62.8652 20.9712C63.0117 20.7271 63.1191 20.4463 63.1875 20.1289C63.2559 19.8115 63.29 19.4746 63.29 19.1182ZM71.0024 20.854C71.0024 20.6782 70.9585 20.5195 70.8706 20.3779C70.7827 20.2314 70.6143 20.0996 70.3652 19.9824C70.1211 19.8652 69.7598 19.7578 69.2812 19.6602C68.8613 19.5674 68.4756 19.4575 68.124 19.3306C67.7773 19.1987 67.4795 19.04 67.2305 18.8545C66.9814 18.6689 66.7886 18.4492 66.6519 18.1953C66.5151 17.9414 66.4468 17.6484 66.4468 17.3164C66.4468 16.9941 66.5176 16.689 66.6592 16.4009C66.8008 16.1128 67.0034 15.8589 67.2671 15.6392C67.5308 15.4194 67.8506 15.2461 68.2266 15.1191C68.6074 14.9922 69.0322 14.9287 69.501 14.9287C70.165 14.9287 70.7339 15.041 71.2075 15.2656C71.686 15.4854 72.0522 15.7856 72.3062 16.1665C72.5601 16.5425 72.687 16.9673 72.687 17.4409H70.9219C70.9219 17.231 70.8682 17.0356 70.7607 16.855C70.6582 16.6694 70.502 16.5205 70.292 16.4082C70.082 16.291 69.8184 16.2324 69.501 16.2324C69.1982 16.2324 68.9468 16.2812 68.7466 16.3789C68.5513 16.4717 68.4048 16.5938 68.3071 16.7451C68.2144 16.8965 68.168 17.0625 68.168 17.2432C68.168 17.375 68.1924 17.4946 68.2412 17.6021C68.2949 17.7046 68.3828 17.7998 68.5049 17.8877C68.627 17.9707 68.793 18.0488 69.0029 18.1221C69.2178 18.1953 69.4863 18.2661 69.8086 18.3345C70.4141 18.4614 70.9341 18.625 71.3687 18.8252C71.8081 19.0205 72.145 19.2744 72.3794 19.5869C72.6138 19.8945 72.731 20.2852 72.731 20.7588C72.731 21.1104 72.6553 21.4326 72.5039 21.7256C72.3574 22.0137 72.1426 22.2651 71.8594 22.48C71.5762 22.6899 71.2368 22.8535 70.8413 22.9707C70.4507 23.0879 70.0112 23.1465 69.5229 23.1465C68.8052 23.1465 68.1973 23.0195 67.6992 22.7656C67.2012 22.5068 66.8228 22.1772 66.564 21.7769C66.3101 21.3716 66.1831 20.9517 66.1831 20.5171H67.8896C67.9092 20.8442 67.9995 21.1055 68.1606 21.3008C68.3267 21.4912 68.5317 21.6304 68.7759 21.7183C69.0249 21.8013 69.2812 21.8428 69.5449 21.8428C69.8623 21.8428 70.1284 21.8013 70.3433 21.7183C70.5581 21.6304 70.7217 21.5132 70.834 21.3667C70.9463 21.2153 71.0024 21.0444 71.0024 20.854Z" fill="white"/>
<path d="M17.4902 10.5V21.875M23.7639 12.7925V24.5M12.0039 13.8075V22.3212C12.0039 23.9837 13.1852 24.6662 14.6202 23.8437L16.6764 22.6712C17.1227 22.4175 17.8664 22.3912 18.3302 22.6275L22.9239 24.9287C23.3877 25.1562 24.1314 25.1387 24.5777 24.885L28.3664 22.715C28.8477 22.435 29.2502 21.7525 29.2502 21.1925V12.6787C29.2502 11.0162 28.0689 10.3337 26.6339 11.1562L24.5777 12.3287C24.1314 12.5825 23.3877 12.6087 22.9239 12.3725L18.3302 10.08C17.8664 9.85248 17.1227 9.86998 16.6764 10.1237L12.8877 12.2937C12.3977 12.5737 12.0039 13.2562 12.0039 13.8075V13.8075Z" stroke="white" stroke-width="1.5" stroke-linecap="round" stroke-linejoin="round"/>
</svg>
