<svg width="14" height="13" viewBox="0 0 14 13" fill="none" xmlns="http://www.w3.org/2000/svg">
<path fill-rule="evenodd" clip-rule="evenodd" d="M4.10482 2.1707C4.89585 2.25583 5.94243 2.47627 6.73405 2.9492V8.49624C5.94243 8.02332 4.89585 7.80287 4.10482 7.71774C3.68853 7.67294 3.34863 7.34175 3.34863 6.93327V2.86544C3.34863 2.45697 3.68853 2.1259 4.10482 2.1707ZM10.1758 7.71774C9.38475 7.80287 8.33817 8.02332 7.54655 8.49624V2.9492C8.33817 2.47627 9.38475 2.25583 10.1758 2.1707C10.5921 2.1259 10.932 2.45697 10.932 2.86544V6.93327C10.932 7.34175 10.5921 7.67294 10.1758 7.71774ZM1.72363 7.58323C1.72363 6.75899 2.03046 6.00642 2.53613 5.4335V6.93325C2.53613 7.82032 3.25527 8.44349 4.01788 8.52556C4.81718 8.61157 5.78948 8.83735 6.43024 9.26497C6.85807 9.55048 7.42253 9.55048 7.85035 9.26497C8.49112 8.83735 9.46342 8.61157 10.2627 8.52556C11.0253 8.44349 11.7445 7.82032 11.7445 6.93325V5.4335C12.2501 6.00642 12.557 6.75899 12.557 7.58323C12.557 9.37815 11.1019 10.8332 9.30697 10.8332H4.97363C3.17871 10.8332 1.72363 9.37815 1.72363 7.58323Z" fill="#3F4042"/>
</svg>
