<svg width="11" height="10" viewBox="0 0 11 10" fill="none" xmlns="http://www.w3.org/2000/svg">
<path fill-rule="evenodd" clip-rule="evenodd" d="M4.74035 2.10943C4.5906 2.48688 4.46871 2.94537 4.38634 3.4601C4.78484 3.4236 5.20587 3.40417 5.64031 3.40417C6.07475 3.40417 6.49578 3.4236 6.89427 3.4601C6.81191 2.94537 6.69002 2.48688 6.54026 2.10943C6.39632 1.74663 6.23284 1.47446 6.0675 1.2982C5.9028 1.12262 5.75833 1.06365 5.64031 1.06365C5.52228 1.06365 5.37782 1.12262 5.21311 1.2982C5.04778 1.47446 4.8843 1.74663 4.74035 2.10943ZM4.15249 1.87236C3.96562 2.34333 3.82224 2.91066 3.73436 3.53786C3.30178 3.60218 2.90701 3.688 2.56462 3.79155C2.16623 3.91205 1.82077 4.06186 1.56784 4.24273C1.53588 4.26558 1.50434 4.28973 1.47365 4.31519C1.75284 2.5754 3.07828 1.18904 4.77818 0.833375C4.76974 0.842025 4.76138 0.85077 4.75309 0.859607C4.51443 1.11403 4.31409 1.46506 4.15249 1.87236ZM6.50244 0.833374C6.51087 0.842024 6.51924 0.85077 6.52753 0.859607C6.76619 1.11403 6.96653 1.46506 7.12813 1.87236C7.31499 2.34333 7.45837 2.91066 7.54625 3.53786C7.97884 3.60218 8.3736 3.688 8.716 3.79155C9.11439 3.91205 9.45985 4.06186 9.71278 4.24273C9.74473 4.26558 9.77628 4.28973 9.80697 4.31519C9.52778 2.5754 8.20234 1.18904 6.50244 0.833374ZM9.80699 5.68476C9.77629 5.71023 9.74474 5.73439 9.71278 5.75724C9.45985 5.93811 9.11439 6.08792 8.716 6.20841C8.3736 6.31197 7.97884 6.39779 7.54625 6.46211C7.45837 7.0893 7.31499 7.65664 7.12813 8.12761C6.96653 8.53491 6.76619 8.88594 6.52753 9.14036C6.51919 9.14924 6.51079 9.15803 6.50231 9.16672C8.20232 8.81109 9.52783 7.42465 9.80699 5.68476ZM4.7783 9.16672C4.76982 9.15803 4.76142 9.14924 4.75309 9.14036C4.51443 8.88594 4.31409 8.53491 4.15249 8.12761C3.96562 7.65664 3.82224 7.0893 3.73436 6.46211C3.30178 6.39779 2.90701 6.31197 2.56462 6.20841C2.16623 6.08792 1.82077 5.9381 1.56784 5.75724C1.53588 5.73439 1.50433 5.71023 1.47363 5.68477C1.75278 7.42465 3.0783 8.81109 4.7783 9.16672ZM2.74656 5.59701C3.01509 5.67823 3.32406 5.74863 3.6646 5.80513C3.64533 5.54339 3.63532 5.27426 3.63532 4.99998C3.63532 4.72571 3.64533 4.45658 3.6646 4.19484C3.32406 4.25134 3.01509 4.32174 2.74656 4.40296C2.38109 4.51349 2.1084 4.63877 1.93414 4.76338C1.75165 4.89387 1.73585 4.97845 1.73585 4.99998C1.73585 5.02152 1.75165 5.1061 1.93414 5.23658C2.1084 5.36119 2.38109 5.48647 2.74656 5.59701ZM4.26847 4.99998C4.26847 5.3069 4.28175 5.60496 4.30671 5.89081C4.72292 5.93384 5.17149 5.95747 5.64031 5.95747C6.10913 5.95747 6.5577 5.93384 6.97391 5.89081C6.99887 5.60496 7.01214 5.3069 7.01214 4.99998C7.01214 4.69307 6.99887 4.39501 6.97391 4.10915C6.5577 4.06612 6.10913 4.0425 5.64031 4.0425C5.17149 4.0425 4.72292 4.06612 4.30671 4.10915C4.28175 4.395 4.26847 4.69307 4.26847 4.99998ZM4.74035 7.89054C4.5906 7.51309 4.46871 7.05459 4.38634 6.53986C4.78484 6.57636 5.20587 6.59579 5.64031 6.59579C6.07475 6.59579 6.49578 6.57636 6.89427 6.53986C6.81191 7.05459 6.69002 7.51309 6.54026 7.89054C6.39632 8.25333 6.23284 8.52551 6.0675 8.70176C5.9028 8.87734 5.75833 8.93632 5.64031 8.93632C5.52228 8.93632 5.37782 8.87734 5.21311 8.70176C5.04778 8.52551 4.8843 8.25333 4.74035 7.89054ZM8.53406 5.59701C8.26552 5.67823 7.95656 5.74863 7.61601 5.80513C7.63529 5.54339 7.6453 5.27426 7.6453 4.99998C7.6453 4.72571 7.63529 4.45658 7.61601 4.19484C7.95656 4.25134 8.26552 4.32174 8.53406 4.40296C8.89953 4.51349 9.17222 4.63877 9.34648 4.76338C9.52896 4.89387 9.54476 4.97845 9.54476 4.99998C9.54476 5.02152 9.52896 5.1061 9.34648 5.23659C9.17222 5.36119 8.89953 5.48647 8.53406 5.59701Z" fill="#3F4042"/>
</svg>
