<svg width="27" height="27" viewBox="0 0 27 27" fill="none" xmlns="http://www.w3.org/2000/svg">
<path d="M3.04147 7.28315L2.59492 6.68059L2.59492 6.68059L3.04147 7.28315ZM9.98591 2.13668L9.53936 1.53412V1.53412L9.98591 2.13668ZM17.0141 2.13668L17.4606 1.53412L17.0141 2.13668ZM23.9585 7.28315L23.512 7.88572V7.88572L23.9585 7.28315ZM25.25 11.1879V20.9586H26.75V11.1879H25.25ZM20.4444 25.25H6.55555V26.75H20.4444V25.25ZM1.75 20.9586V11.1879H0.25V20.9586H1.75ZM3.48803 7.88572L10.4325 2.73925L9.53936 1.53412L2.59492 6.68059L3.48803 7.88572ZM16.5675 2.73925L23.512 7.88572L24.4051 6.68059L17.4606 1.53412L16.5675 2.73925ZM10.4325 2.73925C12.2123 1.42025 14.7877 1.42025 16.5675 2.73925L17.4606 1.53412C15.1503 -0.178041 11.8497 -0.178037 9.53936 1.53412L10.4325 2.73925ZM6.55555 25.25C3.83133 25.25 1.75 23.2618 1.75 20.9586H0.25C0.25 24.224 3.14328 26.75 6.55555 26.75V25.25ZM25.25 20.9586C25.25 23.2618 23.1687 25.25 20.4444 25.25V26.75C23.8567 26.75 26.75 24.2239 26.75 20.9586H25.25ZM26.75 11.1879C26.75 9.41985 25.874 7.76921 24.4051 6.68059L23.512 7.88572C24.627 8.71203 25.25 9.92858 25.25 11.1879H26.75ZM1.75 11.1879C1.75 9.92858 2.37304 8.71203 3.48803 7.88572L2.59492 6.68059C1.12597 7.76921 0.25 9.41985 0.25 11.1879H1.75ZM19.8056 26V21H18.3056V26H19.8056ZM7.19444 21V26H8.69444V21H7.19444ZM13.5 15.25C10.0938 15.25 7.19444 17.752 7.19444 21H8.69444C8.69444 18.7252 10.7697 16.75 13.5 16.75V15.25ZM19.8056 21C19.8056 17.752 16.9062 15.25 13.5 15.25V16.75C16.2303 16.75 18.3056 18.7252 18.3056 21H19.8056Z" fill="black"/>
</svg>
