<svg width="15" height="18" viewBox="0 0 15 18" fill="none" xmlns="http://www.w3.org/2000/svg">
<path fill-rule="evenodd" clip-rule="evenodd" d="M7.73438 0.0993043V2.8607C7.73438 5.36224 9.72811 7.39013 12.1875 7.39013H14.9024C14.9667 7.67142 15 7.96141 15 8.25488V13.3499C15 15.4565 13.3211 17.1642 11.25 17.1642H3.75C1.67893 17.1642 0 15.4565 0 13.3499V3.81426C0 1.7077 1.67893 0 3.75 0H6.8842C7.17273 0 7.45783 0.0338209 7.73438 0.0993043ZM9.14062 0.767746V2.8607C9.14062 4.57228 10.5048 5.95978 12.1875 5.95978H14.2452C14.1406 5.81861 14.026 5.68422 13.9017 5.55779L9.53585 1.11717C9.41155 0.990741 9.27942 0.874104 9.14062 0.767746ZM3.04688 8.58209C3.04688 8.18711 3.36167 7.86692 3.75 7.86692H7.5C7.88832 7.86692 8.20312 8.18711 8.20312 8.58209C8.20312 8.97707 7.88832 9.29726 7.5 9.29726H3.75C3.36167 9.29726 3.04688 8.97707 3.04688 8.58209ZM3.75 11.6812C3.36167 11.6812 3.04688 12.0014 3.04688 12.3964C3.04688 12.7913 3.36167 13.1115 3.75 13.1115H11.25C11.6383 13.1115 11.9531 12.7913 11.9531 12.3964C11.9531 12.0014 11.6383 11.6812 11.25 11.6812H3.75Z" fill="#FF8469"/>
</svg>
