<svg width="24" height="24" viewBox="0 0 24 24" fill="none" xmlns="http://www.w3.org/2000/svg">
<path d="M5 23.7001C4.45 23.7001 3.979 23.504 3.587 23.112C3.19567 22.7207 3 22.25 3 21.7001V7.70005C3 7.15005 3.19567 6.67905 3.587 6.28705C3.979 5.89572 4.45 5.70005 5 5.70005H13.925L11.925 7.70005H5V21.7001H19V14.75L21 12.75V21.7001C21 22.25 20.8043 22.7207 20.413 23.112C20.021 23.504 19.55 23.7001 19 23.7001H5ZM16.175 6.27505L17.6 7.67505L11 14.275V15.7H12.4L19.025 9.07505L20.45 10.475L13.825 17.1C13.6417 17.2834 13.4293 17.4294 13.188 17.538C12.946 17.646 12.6917 17.7 12.425 17.7H10C9.71667 17.7 9.47933 17.6044 9.288 17.413C9.096 17.221 9 16.9834 9 16.7V14.275C9 14.0084 9.05 13.754 9.15 13.512C9.25 13.2707 9.39167 13.0584 9.575 12.875L16.175 6.27505ZM20.45 10.475L16.175 6.27505L18.675 3.77505C19.075 3.37505 19.5543 3.17505 20.113 3.17505C20.671 3.17505 21.1417 3.37505 21.525 3.77505L22.925 5.20005C23.3083 5.58338 23.5 6.05005 23.5 6.60005C23.5 7.15005 23.3083 7.61672 22.925 8.00005L20.45 10.475Z" fill="black"/>
</svg>
