<svg width="30" height="30" viewBox="0 0 30 30" fill="none" xmlns="http://www.w3.org/2000/svg">
<path d="M27.5766 17.8125L25.9688 16.2047C26.1516 15.8293 26.2478 15.4176 26.25 15C26.25 14.4437 26.085 13.9 25.776 13.4375C25.467 12.9749 25.0277 12.6145 24.5138 12.4016C23.9999 12.1887 23.4344 12.133 22.8888 12.2415C22.3432 12.3501 21.8421 12.6179 21.4488 13.0113C21.0554 13.4046 20.7876 13.9057 20.679 14.4513C20.5705 14.9969 20.6262 15.5624 20.8391 16.0763C21.052 16.5902 21.4124 17.0295 21.875 17.3385C22.3375 17.6476 22.8812 17.8125 23.4375 17.8125C23.8554 17.8104 24.2674 17.7143 24.6431 17.5313L26.25 19.1381V26.25H20.625V23.4375C20.623 21.6976 19.931 20.0296 18.7007 18.7993C17.4704 17.569 15.8024 16.877 14.0625 16.875H8.4375C6.69763 16.877 5.02958 17.569 3.7993 18.7993C2.56903 20.0296 1.87699 21.6976 1.875 23.4375V28.125H28.125V19.1381C28.1257 18.8919 28.0776 18.648 27.9834 18.4204C27.8893 18.1929 27.751 17.9863 27.5766 17.8125ZM3.75 23.4375C3.75149 22.1948 4.24583 21.0033 5.12458 20.1246C6.00333 19.2458 7.19475 18.7515 8.4375 18.75H14.0625C15.3052 18.7515 16.4967 19.2458 17.3754 20.1246C18.2542 21.0033 18.7485 22.1948 18.75 23.4375V26.25H3.75V23.4375Z" fill="#D1CFD7"/>
<path d="M11.25 3.75C12.1771 3.75 13.0834 4.02492 13.8542 4.53999C14.6251 5.05506 15.2259 5.78714 15.5807 6.64367C15.9355 7.5002 16.0283 8.4427 15.8474 9.35199C15.6666 10.2613 15.2201 11.0965 14.5646 11.7521C13.909 12.4076 13.0738 12.8541 12.1645 13.0349C11.2552 13.2158 10.3127 13.123 9.45617 12.7682C8.59965 12.4134 7.86756 11.8126 7.35249 11.0417C6.83742 10.2709 6.5625 9.3646 6.5625 8.4375C6.5625 7.1943 7.05636 6.00201 7.93544 5.12294C8.81452 4.24386 10.0068 3.75 11.25 3.75ZM11.25 1.875C9.95206 1.875 8.68327 2.25988 7.60407 2.98098C6.52488 3.70208 5.68374 4.727 5.18704 5.92614C4.69034 7.12528 4.56038 8.44478 4.8136 9.71778C5.06682 10.9908 5.69183 12.1601 6.60961 13.0779C7.5274 13.9957 8.69672 14.6207 9.96972 14.8739C11.2427 15.1271 12.5622 14.9972 13.7614 14.5005C14.9605 14.0038 15.9854 13.1626 16.7065 12.0834C17.4276 11.0042 17.8125 9.73544 17.8125 8.4375C17.8125 6.69702 17.1211 5.02782 15.8904 3.79711C14.6597 2.5664 12.9905 1.875 11.25 1.875Z" fill="#D1CFD7"/>
</svg>
