<svg width="93" height="48" viewBox="0 0 93 48" fill="none" xmlns="http://www.w3.org/2000/svg">
<g filter="url(#filter0_d_639_9311)">
<rect x="4" width="85" height="40" rx="20" fill="white"/>
</g>
<path d="M53.2812 23.4453V25H47.5703V23.4453H53.2812ZM48.1172 13.625V25H46.1562V13.625H48.1172ZM56.625 16.5469V25H54.7344V16.5469H56.625ZM54.6094 14.3281C54.6094 14.0417 54.7031 13.8047 54.8906 13.6172C55.0833 13.4245 55.349 13.3281 55.6875 13.3281C56.0208 13.3281 56.2839 13.4245 56.4766 13.6172C56.6693 13.8047 56.7656 14.0417 56.7656 14.3281C56.7656 14.6094 56.6693 14.8438 56.4766 15.0312C56.2839 15.2188 56.0208 15.3125 55.6875 15.3125C55.349 15.3125 55.0833 15.2188 54.8906 15.0312C54.7031 14.8438 54.6094 14.6094 54.6094 14.3281ZM63.4297 22.7109C63.4297 22.5234 63.3828 22.3542 63.2891 22.2031C63.1953 22.0469 63.0156 21.9062 62.75 21.7812C62.4896 21.6562 62.1042 21.5417 61.5938 21.4375C61.1458 21.3385 60.7344 21.2214 60.3594 21.0859C59.9896 20.9453 59.6719 20.776 59.4062 20.5781C59.1406 20.3802 58.9349 20.1458 58.7891 19.875C58.6432 19.6042 58.5703 19.2917 58.5703 18.9375C58.5703 18.5938 58.6458 18.2682 58.7969 17.9609C58.9479 17.6536 59.1641 17.3828 59.4453 17.1484C59.7266 16.9141 60.0677 16.7292 60.4688 16.5938C60.875 16.4583 61.3281 16.3906 61.8281 16.3906C62.5365 16.3906 63.1432 16.5104 63.6484 16.75C64.1589 16.9844 64.5495 17.3047 64.8203 17.7109C65.0911 18.112 65.2266 18.5651 65.2266 19.0703H63.3438C63.3438 18.8464 63.2865 18.638 63.1719 18.4453C63.0625 18.2474 62.8958 18.0885 62.6719 17.9688C62.4479 17.8438 62.1667 17.7812 61.8281 17.7812C61.5052 17.7812 61.237 17.8333 61.0234 17.9375C60.8151 18.0365 60.6589 18.1667 60.5547 18.3281C60.4557 18.4896 60.4062 18.6667 60.4062 18.8594C60.4062 19 60.4323 19.1276 60.4844 19.2422C60.5417 19.3516 60.6354 19.4531 60.7656 19.5469C60.8958 19.6354 61.0729 19.7188 61.2969 19.7969C61.526 19.875 61.8125 19.9505 62.1562 20.0234C62.8021 20.1589 63.3568 20.3333 63.8203 20.5469C64.2891 20.7552 64.6484 21.026 64.8984 21.3594C65.1484 21.6875 65.2734 22.1042 65.2734 22.6094C65.2734 22.9844 65.1927 23.3281 65.0312 23.6406C64.875 23.9479 64.6458 24.2161 64.3438 24.4453C64.0417 24.6693 63.6797 24.8438 63.2578 24.9688C62.8411 25.0938 62.3724 25.1562 61.8516 25.1562C61.0859 25.1562 60.4375 25.0208 59.9062 24.75C59.375 24.474 58.9714 24.1224 58.6953 23.6953C58.4245 23.263 58.2891 22.8151 58.2891 22.3516H60.1094C60.1302 22.7005 60.2266 22.9792 60.3984 23.1875C60.5755 23.3906 60.7943 23.5391 61.0547 23.6328C61.3203 23.7214 61.5938 23.7656 61.875 23.7656C62.2135 23.7656 62.4974 23.7214 62.7266 23.6328C62.9557 23.5391 63.1302 23.4141 63.25 23.2578C63.3698 23.0964 63.4297 22.9141 63.4297 22.7109ZM70.7969 16.5469V17.9219H66.0312V16.5469H70.7969ZM67.4062 14.4766H69.2891V22.6641C69.2891 22.9245 69.3255 23.125 69.3984 23.2656C69.4766 23.401 69.5833 23.4922 69.7188 23.5391C69.8542 23.5859 70.013 23.6094 70.1953 23.6094C70.3255 23.6094 70.4505 23.6016 70.5703 23.5859C70.6901 23.5703 70.7865 23.5547 70.8594 23.5391L70.8672 24.9766C70.7109 25.0234 70.5286 25.0651 70.3203 25.1016C70.1172 25.138 69.8828 25.1562 69.6172 25.1562C69.1849 25.1562 68.8021 25.0807 68.4688 24.9297C68.1354 24.7734 67.875 24.5208 67.6875 24.1719C67.5 23.8229 67.4062 23.3594 67.4062 22.7812V14.4766Z" fill="#386AFF"/>
<line x1="20" y1="14" x2="34" y2="14" stroke="#386AFF" stroke-width="2" stroke-linecap="round"/>
<line x1="20" y1="24.6667" x2="34" y2="24.6667" stroke="#386AFF" stroke-width="2" stroke-linecap="round"/>
<line x1="20" y1="19.3333" x2="34" y2="19.3333" stroke="#386AFF" stroke-width="2" stroke-linecap="round"/>
<defs>
<filter id="filter0_d_639_9311" x="0" y="0" width="93" height="48" filterUnits="userSpaceOnUse" color-interpolation-filters="sRGB">
<feFlood flood-opacity="0" result="BackgroundImageFix"/>
<feColorMatrix in="SourceAlpha" type="matrix" values="0 0 0 0 0 0 0 0 0 0 0 0 0 0 0 0 0 0 127 0" result="hardAlpha"/>
<feOffset dy="4"/>
<feGaussianBlur stdDeviation="2"/>
<feComposite in2="hardAlpha" operator="out"/>
<feColorMatrix type="matrix" values="0 0 0 0 0 0 0 0 0 0 0 0 0 0 0 0 0 0 0.25 0"/>
<feBlend mode="normal" in2="BackgroundImageFix" result="effect1_dropShadow_639_9311"/>
<feBlend mode="normal" in="SourceGraphic" in2="effect1_dropShadow_639_9311" result="shape"/>
</filter>
</defs>
</svg>
