<svg width="12" height="11" viewBox="0 0 12 11" fill="none" xmlns="http://www.w3.org/2000/svg">
<g clip-path="url(#clip0_639_10683)">
<path fill-rule="evenodd" clip-rule="evenodd" d="M2.97496 1.94788C3.1276 1.35483 3.66595 0.916626 4.30664 0.916626H7.97331C8.614 0.916626 9.15235 1.35483 9.30499 1.94788H6.13997L2.97496 1.94788ZM2.93164 2.63538V4.81246H5.79622V2.63538H2.93164ZM9.34831 2.63538V4.81246H6.48372V2.63538H9.34831ZM9.34831 2.63538V1.94788H9.80664C10.5027 1.94788 11.0671 2.51218 11.0671 3.20829V3.66663C11.0671 3.85647 10.9132 4.01038 10.7233 4.01038C10.5335 4.01038 10.3796 3.85647 10.3796 3.66663V3.20829C10.3796 2.89188 10.1231 2.63538 9.80664 2.63538L9.34831 2.63538ZM1.90039 3.20829C1.90039 2.89188 2.15689 2.63538 2.47331 2.63538L2.93164 2.63538V1.94788H2.47331C1.7772 1.94788 1.21289 2.51218 1.21289 3.20829V3.66663C1.21289 3.85647 1.36679 4.01038 1.55664 4.01038C1.74649 4.01038 1.90039 3.85647 1.90039 3.66663V3.20829ZM2.93164 5.49996C2.42538 5.49996 2.01497 5.91037 2.01497 6.41663V7.33329C2.01497 7.83955 2.42538 8.24996 2.93164 8.24996H9.34831C9.85457 8.24996 10.265 7.83955 10.265 7.33329V6.41663C10.265 5.91037 9.85457 5.49996 9.34831 5.49996H2.93164ZM3.38997 9.62496V8.93746H5.22331V9.62496C5.22331 9.87809 5.0181 10.0833 4.76497 10.0833H3.84831C3.59518 10.0833 3.38997 9.87809 3.38997 9.62496ZM7.05664 8.93746V9.62496C7.05664 9.87809 7.26184 10.0833 7.51497 10.0833H8.43164C8.68477 10.0833 8.88997 9.87809 8.88997 9.62496V8.93746H7.05664Z" fill="#3F4042"/>
</g>
<defs>
<clipPath id="clip0_639_10683">
<rect width="11" height="11" fill="white" transform="translate(0.640137)"/>
</clipPath>
</defs>
</svg>
