<svg width="11" height="10" viewBox="0 0 11 10" fill="none" xmlns="http://www.w3.org/2000/svg">
<path fill-rule="evenodd" clip-rule="evenodd" d="M3.45247 0.833374C3.45247 0.660785 3.31256 0.520874 3.13997 0.520874C2.96738 0.520874 2.82747 0.660785 2.82747 0.833374L2.82747 3.02087H2.30664C2.13405 3.02087 1.99414 3.16079 1.99414 3.33337C1.99414 3.50596 2.13405 3.64587 2.30664 3.64587H2.82747L2.82747 8.85421H2.30664C2.13405 8.85421 1.99414 8.99412 1.99414 9.16671C1.99414 9.3393 2.13405 9.47921 2.30664 9.47921H8.97331C9.1459 9.47921 9.28581 9.3393 9.28581 9.16671C9.28581 8.99412 9.1459 8.85421 8.97331 8.85421H3.45247L3.45247 3.64587H5.32747V6.25004C5.32747 7.11299 6.02703 7.81254 6.88997 7.81254C7.75292 7.81254 8.45247 7.11299 8.45247 6.25004V3.64587H8.97331C9.1459 3.64587 9.28581 3.50596 9.28581 3.33337C9.28581 3.16079 9.1459 3.02087 8.97331 3.02087H8.45247V1.14587H8.55664C8.72923 1.14587 8.86914 1.00596 8.86914 0.833374C8.86914 0.660785 8.72923 0.520874 8.55664 0.520874H8.13997H5.63997H5.22331C5.05072 0.520874 4.91081 0.660785 4.91081 0.833374C4.91081 1.00596 5.05072 1.14587 5.22331 1.14587H5.32747V3.02087H3.45247V0.833374ZM7.82747 3.02087H5.95247V1.14587H7.82747V3.02087Z" fill="#3F4042"/>
</svg>
