<svg width="64" height="20" viewBox="0 0 64 20" fill="none" xmlns="http://www.w3.org/2000/svg">
<rect x="0.5" y="0.5" width="63" height="19" rx="9.5" fill="#386AFF" stroke="#386AFF"/>
<path d="M26.1475 5.89062H27.0605L29.3896 11.6865L31.7139 5.89062H32.6318L29.7412 13H29.0283L26.1475 5.89062ZM25.8496 5.89062H26.6553L26.7871 10.2266V13H25.8496V5.89062ZM32.1191 5.89062H32.9248V13H31.9873V10.2266L32.1191 5.89062ZM37.5586 12.0967V9.37695C37.5586 9.16862 37.5163 8.98796 37.4316 8.83496C37.3503 8.67871 37.2266 8.55827 37.0605 8.47363C36.8945 8.389 36.6895 8.34668 36.4453 8.34668C36.2174 8.34668 36.0173 8.38574 35.8447 8.46387C35.6755 8.54199 35.542 8.64453 35.4443 8.77148C35.3499 8.89844 35.3027 9.03516 35.3027 9.18164H34.3994C34.3994 8.99284 34.4482 8.80566 34.5459 8.62012C34.6436 8.43457 34.7835 8.26693 34.9658 8.11719C35.1514 7.96419 35.3727 7.84375 35.6299 7.75586C35.8903 7.66471 36.18 7.61914 36.499 7.61914C36.8831 7.61914 37.2217 7.68424 37.5146 7.81445C37.8109 7.94466 38.042 8.1416 38.208 8.40527C38.3773 8.66569 38.4619 8.99284 38.4619 9.38672V11.8477C38.4619 12.0234 38.4766 12.2106 38.5059 12.4092C38.5384 12.6077 38.5856 12.7786 38.6475 12.9219V13H37.7051C37.6595 12.8958 37.6237 12.7575 37.5977 12.585C37.5716 12.4092 37.5586 12.2464 37.5586 12.0967ZM37.7148 9.79688L37.7246 10.4316H36.8115C36.5544 10.4316 36.3249 10.4528 36.123 10.4951C35.9212 10.5342 35.752 10.5944 35.6152 10.6758C35.4785 10.7572 35.3743 10.8597 35.3027 10.9834C35.2311 11.1038 35.1953 11.2454 35.1953 11.4082C35.1953 11.5742 35.2327 11.7256 35.3076 11.8623C35.3825 11.999 35.4948 12.1081 35.6445 12.1895C35.7975 12.2676 35.9847 12.3066 36.2061 12.3066C36.4827 12.3066 36.7269 12.248 36.9385 12.1309C37.1501 12.0137 37.3177 11.8704 37.4414 11.7012C37.5684 11.5319 37.6367 11.3675 37.6465 11.208L38.0322 11.6426C38.0094 11.7793 37.9476 11.9307 37.8467 12.0967C37.7458 12.2627 37.6107 12.4222 37.4414 12.5752C37.2754 12.7249 37.0768 12.8503 36.8457 12.9512C36.6178 13.0488 36.3607 13.0977 36.0742 13.0977C35.7161 13.0977 35.402 13.0277 35.1318 12.8877C34.8649 12.7477 34.6566 12.5605 34.5068 12.3262C34.3604 12.0885 34.2871 11.8232 34.2871 11.5303C34.2871 11.2471 34.3424 10.998 34.4531 10.7832C34.5638 10.5651 34.7233 10.3844 34.9316 10.2412C35.14 10.0947 35.3906 9.98405 35.6836 9.90918C35.9766 9.83431 36.3037 9.79688 36.665 9.79688H37.7148ZM40.7861 8.73242V15.0312H39.8779V7.7168H40.708L40.7861 8.73242ZM44.3457 10.3145V10.417C44.3457 10.8011 44.3001 11.1576 44.209 11.4863C44.1178 11.8118 43.9844 12.0951 43.8086 12.3359C43.6361 12.5768 43.4229 12.764 43.1689 12.8975C42.915 13.0309 42.6237 13.0977 42.2949 13.0977C41.9596 13.0977 41.6634 13.0423 41.4062 12.9316C41.1491 12.821 40.931 12.6598 40.752 12.4482C40.5729 12.2367 40.4297 11.9827 40.3223 11.6865C40.2181 11.3903 40.1465 11.0566 40.1074 10.6855V10.1387C40.1465 9.74805 40.2197 9.39811 40.3271 9.08887C40.4346 8.77962 40.5762 8.51595 40.752 8.29785C40.931 8.0765 41.1475 7.90885 41.4014 7.79492C41.6553 7.67773 41.9482 7.61914 42.2803 7.61914C42.6123 7.61914 42.9069 7.68424 43.1641 7.81445C43.4212 7.94141 43.6377 8.1237 43.8135 8.36133C43.9893 8.59896 44.1211 8.88379 44.209 9.21582C44.3001 9.5446 44.3457 9.91081 44.3457 10.3145ZM43.4375 10.417V10.3145C43.4375 10.0508 43.4098 9.80339 43.3545 9.57227C43.2992 9.33789 43.2129 9.13281 43.0957 8.95703C42.9818 8.77799 42.8353 8.63802 42.6562 8.53711C42.4772 8.43294 42.264 8.38086 42.0166 8.38086C41.7887 8.38086 41.5902 8.41992 41.4209 8.49805C41.2549 8.57617 41.1133 8.68197 40.9961 8.81543C40.8789 8.94564 40.7829 9.09538 40.708 9.26465C40.6364 9.43066 40.5827 9.60319 40.5469 9.78223V11.0469C40.612 11.2747 40.7031 11.4896 40.8203 11.6914C40.9375 11.89 41.0938 12.0511 41.2891 12.1748C41.4844 12.2952 41.7301 12.3555 42.0264 12.3555C42.2705 12.3555 42.4805 12.305 42.6562 12.2041C42.8353 12.0999 42.9818 11.9583 43.0957 11.7793C43.2129 11.6003 43.2992 11.3952 43.3545 11.1641C43.4098 10.9297 43.4375 10.6807 43.4375 10.417ZM48.5742 11.5986C48.5742 11.4684 48.5449 11.348 48.4863 11.2373C48.431 11.1234 48.3154 11.0208 48.1396 10.9297C47.9671 10.8353 47.7067 10.7539 47.3584 10.6855C47.0654 10.6237 46.8001 10.5505 46.5625 10.4658C46.3281 10.3812 46.1279 10.2786 45.9619 10.1582C45.7992 10.0378 45.6738 9.89616 45.5859 9.7334C45.498 9.57064 45.4541 9.38021 45.4541 9.16211C45.4541 8.95378 45.4997 8.75684 45.5908 8.57129C45.6852 8.38574 45.8171 8.22135 45.9863 8.07812C46.1589 7.9349 46.3656 7.82259 46.6064 7.74121C46.8473 7.65983 47.1159 7.61914 47.4121 7.61914C47.8353 7.61914 48.1966 7.69401 48.4961 7.84375C48.7956 7.99349 49.0251 8.19368 49.1846 8.44434C49.3441 8.69173 49.4238 8.9668 49.4238 9.26953H48.5205C48.5205 9.12305 48.4766 8.98145 48.3887 8.84473C48.304 8.70475 48.1787 8.58919 48.0127 8.49805C47.8499 8.4069 47.6497 8.36133 47.4121 8.36133C47.1615 8.36133 46.958 8.40039 46.8018 8.47852C46.6488 8.55339 46.5365 8.64941 46.4648 8.7666C46.3965 8.88379 46.3623 9.00749 46.3623 9.1377C46.3623 9.23535 46.3786 9.32324 46.4111 9.40137C46.4469 9.47624 46.5088 9.54622 46.5967 9.61133C46.6846 9.67318 46.8083 9.73177 46.9678 9.78711C47.1273 9.84245 47.3307 9.89779 47.5781 9.95312C48.0111 10.0508 48.3675 10.168 48.6475 10.3047C48.9274 10.4414 49.1357 10.609 49.2725 10.8076C49.4092 11.0062 49.4775 11.2471 49.4775 11.5303C49.4775 11.7614 49.4287 11.973 49.3311 12.165C49.2367 12.3571 49.0983 12.5231 48.916 12.6631C48.737 12.7998 48.5221 12.9072 48.2715 12.9854C48.0241 13.0602 47.7458 13.0977 47.4365 13.0977C46.971 13.0977 46.5771 13.0146 46.2549 12.8486C45.9326 12.6826 45.6885 12.4678 45.5225 12.2041C45.3564 11.9404 45.2734 11.6621 45.2734 11.3691H46.1816C46.1947 11.6165 46.2663 11.8135 46.3965 11.96C46.5267 12.1032 46.6862 12.2057 46.875 12.2676C47.0638 12.3262 47.251 12.3555 47.4365 12.3555C47.6839 12.3555 47.8906 12.3229 48.0566 12.2578C48.2259 12.1927 48.3545 12.1032 48.4424 11.9893C48.5303 11.8753 48.5742 11.7451 48.5742 11.5986Z" fill="white"/>
<path d="M13.6647 7.40294L20.7188 5.05157C21.4788 4.79825 22.2017 5.52124 21.9484 6.28118L19.5971 13.3353C19.3016 14.2216 18.0481 14.2216 17.7526 13.3353L16.8844 10.7305C16.7876 10.4402 16.5598 10.2124 16.2695 10.1156L13.6647 9.24737C12.7784 8.95195 12.7784 7.69836 13.6647 7.40294Z" fill="white"/>
</svg>
