<svg width="26" height="26" viewBox="0 0 26 26" fill="none" xmlns="http://www.w3.org/2000/svg">
<path d="M4.46875 10.5625C4.0953 10.5625 3.72551 10.6361 3.38049 10.779C3.03547 10.9219 2.72198 11.1313 2.45792 11.3954C2.19385 11.6595 1.98438 11.973 1.84147 12.318C1.69856 12.663 1.625 13.0328 1.625 13.4062C1.625 13.7797 1.69856 14.1495 1.84147 14.4945C1.98438 14.8395 2.19385 15.153 2.45792 15.4171C2.72198 15.6812 3.03547 15.8906 3.38049 16.0335C3.72551 16.1764 4.0953 16.25 4.46875 16.25C5.22296 16.25 5.94628 15.9504 6.47958 15.4171C7.01289 14.8838 7.3125 14.1605 7.3125 13.4062C7.3125 12.652 7.01289 11.9287 6.47958 11.3954C5.94628 10.8621 5.22296 10.5625 4.46875 10.5625M4.46875 12.1875C4.79198 12.1875 5.10198 12.3159 5.33054 12.5445C5.5591 12.773 5.6875 13.083 5.6875 13.4062C5.6875 13.7295 5.5591 14.0395 5.33054 14.268C5.10198 14.4966 4.79198 14.625 4.46875 14.625C4.14552 14.625 3.83552 14.4966 3.60696 14.268C3.3784 14.0395 3.25 13.7295 3.25 13.4062C3.25 13.083 3.3784 12.773 3.60696 12.5445C3.83552 12.3159 4.14552 12.1875 4.46875 12.1875V12.1875ZM13 10.5625C13.3734 10.5625 13.7432 10.6361 14.0883 10.779C14.4333 10.9219 14.7468 11.1313 15.0108 11.3954C15.2749 11.6595 15.4844 11.973 15.6273 12.318C15.7702 12.663 15.8438 13.0328 15.8438 13.4062C15.8438 13.7797 15.7702 14.1495 15.6273 14.4945C15.4844 14.8395 15.2749 15.153 15.0108 15.4171C14.7468 15.6812 14.4333 15.8906 14.0883 16.0335C13.7432 16.1764 13.3734 16.25 13 16.25C12.2458 16.25 11.5225 15.9504 10.9892 15.4171C10.4559 14.8838 10.1563 14.1605 10.1562 13.4062C10.1563 12.652 10.4559 11.9287 10.9892 11.3954C11.5225 10.8621 12.2458 10.5625 13 10.5625V10.5625ZM13 12.1875C12.6768 12.1875 12.3668 12.3159 12.1382 12.5445C11.9097 12.773 11.7813 13.083 11.7812 13.4062C11.7813 13.7295 11.9097 14.0395 12.1382 14.268C12.3668 14.4966 12.6768 14.625 13 14.625C13.3232 14.625 13.6332 14.4966 13.8618 14.268C14.0903 14.0395 14.2188 13.7295 14.2188 13.4062C14.2188 13.083 14.0903 12.773 13.8618 12.5445C13.6332 12.3159 13.3232 12.1875 13 12.1875ZM21.5312 10.5625C21.9047 10.5625 22.2745 10.6361 22.6195 10.779C22.9645 10.9219 23.278 11.1313 23.5421 11.3954C23.8062 11.6595 24.0156 11.973 24.1585 12.318C24.3014 12.663 24.375 13.0328 24.375 13.4062C24.375 13.7797 24.3014 14.1495 24.1585 14.4945C24.0156 14.8395 23.8062 15.153 23.5421 15.4171C23.278 15.6812 22.9645 15.8906 22.6195 16.0335C22.2745 16.1764 21.9047 16.25 21.5312 16.25C20.777 16.25 20.0537 15.9504 19.5204 15.4171C18.9871 14.8838 18.6875 14.1605 18.6875 13.4062C18.6875 12.652 18.9871 11.9287 19.5204 11.3954C20.0537 10.8621 20.777 10.5625 21.5312 10.5625V10.5625ZM21.5312 12.1875C21.208 12.1875 20.898 12.3159 20.6695 12.5445C20.4409 12.773 20.3125 13.083 20.3125 13.4062C20.3125 13.7295 20.4409 14.0395 20.6695 14.268C20.898 14.4966 21.208 14.625 21.5312 14.625C21.8545 14.625 22.1645 14.4966 22.393 14.268C22.6216 14.0395 22.75 13.7295 22.75 13.4062C22.75 13.083 22.6216 12.773 22.393 12.5445C22.1645 12.3159 21.8545 12.1875 21.5312 12.1875V12.1875Z" fill="#386AFF"/>
</svg>
