<svg width="13" height="12" viewBox="0 0 13 12" fill="none" xmlns="http://www.w3.org/2000/svg">
<path fill-rule="evenodd" clip-rule="evenodd" d="M5.99447 0.958374C4.8899 0.958374 3.99447 1.8538 3.99447 2.95837V3.35421H8.78613V2.95837C8.78613 1.8538 7.8907 0.958374 6.78613 0.958374H5.99447ZM1.23926 4.43233C1.23926 4.23386 1.40016 4.07296 1.59863 4.07296H11.182C11.3804 4.07296 11.5413 4.23386 11.5413 4.43233C11.5413 4.63081 11.3804 4.79171 11.182 4.79171H10.7028V7.66671C10.7028 7.83516 10.6593 7.99347 10.583 8.13102V10.5417C10.583 10.7402 10.4221 10.9011 10.2236 10.9011C10.0252 10.9011 9.86426 10.7402 9.86426 10.5417V8.61763C9.82502 8.62252 9.78504 8.62504 9.74447 8.62504H9.14551V9.58337C9.14551 9.78185 8.98461 9.94275 8.78613 9.94275C8.58766 9.94275 8.42676 9.78185 8.42676 9.58337V8.62504H4.35384V9.58337C4.35384 9.78185 4.19294 9.94275 3.99447 9.94275C3.79599 9.94275 3.63509 9.78185 3.63509 9.58337V8.62504H3.03613C2.99556 8.62504 2.95558 8.62252 2.91634 8.61763V10.5417C2.91634 10.7402 2.75544 10.9011 2.55697 10.9011C2.35849 10.9011 2.19759 10.7402 2.19759 10.5417V8.13102C2.12126 7.99347 2.0778 7.83517 2.0778 7.66671V4.79171H1.59863C1.40016 4.79171 1.23926 4.63081 1.23926 4.43233Z" fill="#3F4042"/>
</svg>
