<svg width="22" height="22" viewBox="0 0 22 22" fill="none" xmlns="http://www.w3.org/2000/svg">
<path d="M16.76 16.8105H19M4.49333 11L3 11.0391M4.49333 11C4.49333 12.1782 5.44846 13.1333 6.62666 13.1333C7.80487 13.1333 8.76 12.1782 8.76 11C8.76 9.82179 7.80487 8.86667 6.62666 8.86667C5.44846 8.86667 4.49333 9.82179 4.49333 11ZM9.37243 11.0392H19M11.712 5.26777L3 5.26777M19 5.26777H16.76M3 16.8105H11.712M16.2267 16.8667C16.2267 18.0449 15.2715 19 14.0933 19C12.9151 19 11.96 18.0449 11.96 16.8667C11.96 15.6885 12.9151 14.7333 14.0933 14.7333C15.2715 14.7333 16.2267 15.6885 16.2267 16.8667ZM16.2267 5.13333C16.2267 6.31154 15.2715 7.26667 14.0933 7.26667C12.9151 7.26667 11.96 6.31154 11.96 5.13333C11.96 3.95513 12.9151 3 14.0933 3C15.2715 3 16.2267 3.95513 16.2267 5.13333Z" stroke="#386AFF" stroke-width="1.5" stroke-linecap="round"/>
</svg>
