<svg width="13" height="12" viewBox="0 0 13 12" fill="none" xmlns="http://www.w3.org/2000/svg">
<path d="M1.64014 10.7385H11.6401H1.64014ZM10.1765 10.7436V8.45641V10.7436ZM10.1856 5.04103C9.63105 5.04103 9.18559 5.54359 9.18559 6.16923V7.33334C9.18559 7.95898 9.63105 8.46154 10.1856 8.46154C10.7401 8.46154 11.1856 7.95898 11.1856 7.33334V6.16923C11.1856 5.54359 10.7401 5.04103 10.1856 5.04103ZM2.14014 10.7385V2.54872C2.14014 1.51795 2.59468 1 3.49923 1H6.33105C7.23559 1 7.68559 1.51795 7.68559 2.54872V10.7385M4.93559 10.7385V8.81539V10.7385Z" fill="#3F4042"/>
<path d="M1.64014 10.7385H11.6401M10.1765 10.7436V8.45641M2.14014 10.7385V2.54872C2.14014 1.51795 2.59468 1 3.49923 1H6.33105C7.23559 1 7.68559 1.51795 7.68559 2.54872V10.7385M4.93559 10.7385V8.81539M10.1856 5.04103C9.63105 5.04103 9.18559 5.54359 9.18559 6.16923V7.33334C9.18559 7.95898 9.63105 8.46154 10.1856 8.46154C10.7401 8.46154 11.1856 7.95898 11.1856 7.33334V6.16923C11.1856 5.54359 10.7401 5.04103 10.1856 5.04103Z" stroke="#3F4042" stroke-width="1.5" stroke-miterlimit="10" stroke-linecap="round" stroke-linejoin="round"/>
<path d="M3.91309 3.69226H5.03809H6.16309M3.91309 5.61534H6.16309M5.02672 11V8.82047" stroke="white" stroke-width="1.5" stroke-miterlimit="10" stroke-linecap="round" stroke-linejoin="round"/>
</svg>
