<svg width="14" height="13" viewBox="0 0 14 13" fill="none" xmlns="http://www.w3.org/2000/svg">
<path fill-rule="evenodd" clip-rule="evenodd" d="M11.6025 5.69541V6.22986C11.6025 6.89409 11.0641 7.43255 10.3998 7.43255C9.73562 7.43255 9.19716 6.89409 9.19716 6.22986V5.69541L10.0335 6.06711C10.2667 6.17077 10.533 6.17077 10.7662 6.06711L11.6025 5.69541ZM8.44548 5.36133V6.68092C8.44548 6.80547 8.34452 6.90643 8.21997 6.90643C8.09543 6.90643 7.99447 6.80547 7.99447 6.68092V5.16058C7.99721 5.162 8.00002 5.16334 8.0029 5.16462L8.44548 5.36133Z" fill="#3F4042"/>
<path d="M12.797 5.11183L10.7663 4.20934C10.5331 4.10568 10.2669 4.10568 10.0337 4.20934L8.00305 5.11183C7.88401 5.16473 7.88401 5.33368 8.00305 5.38658L10.0337 6.28908C10.2669 6.39273 10.5331 6.39273 10.7663 6.28908L12.797 5.38658C12.916 5.33368 12.916 5.16473 12.797 5.11183Z" fill="#3F4042"/>
<path fill-rule="evenodd" clip-rule="evenodd" d="M9.47854 10.0599H12.2038C12.5359 10.0599 12.8052 9.79067 12.8052 9.45855C12.8052 8.80696 12.2168 8.24655 11.3734 7.99853C11.2727 7.96893 11.165 8.00073 11.0912 8.07534L10.6136 8.5583C10.4959 8.6773 10.3037 8.6773 10.186 8.5583L9.70838 8.07534C9.6346 8.00073 9.52689 7.96893 9.42622 7.99853C9.13075 8.08542 8.86658 8.21064 8.64805 8.3647C9.16868 8.84114 9.4764 9.42671 9.47854 10.0599Z" fill="#3F4042"/>
<path fill-rule="evenodd" clip-rule="evenodd" d="M7.02197 4.44553V5.26099C7.02197 6.27429 6.20053 7.09574 5.18723 7.09574C4.17393 7.09574 3.35248 6.27429 3.35248 5.26099V4.44553L4.62836 5.01258C4.98416 5.17072 5.3903 5.17072 5.7461 5.01258L7.02197 4.44553ZM2.20577 3.93588V5.94902C2.20577 6.13901 2.05175 6.29304 1.86175 6.29304C1.67176 6.29304 1.51774 6.13901 1.51774 5.94902V3.62964C1.52192 3.63179 1.52621 3.63385 1.5306 3.6358L2.20577 3.93588Z" fill="#3F4042"/>
<path d="M8.84378 3.21663L5.74603 1.83985C5.39022 1.68172 4.98409 1.68172 4.62828 1.83985L1.53053 3.21663C1.34893 3.29734 1.34893 3.55508 1.53053 3.63579L4.62828 5.01257C4.98409 5.1707 5.39022 5.1707 5.74603 5.01257L8.84378 3.63579C9.02538 3.55508 9.02538 3.29734 8.84378 3.21663Z" fill="#3F4042"/>
<path d="M4.13267 7.73768L4.86131 8.47446C5.04084 8.656 5.33405 8.656 5.51358 8.47446L6.24222 7.73768C6.35478 7.62386 6.5191 7.57535 6.67267 7.62051C7.95935 7.99888 8.85693 8.8538 8.85693 9.84783C8.85693 10.3545 8.44621 10.7652 7.93956 10.7652H2.43533C1.92868 10.7652 1.51796 10.3545 1.51796 9.84783C1.51796 8.8538 2.41554 7.99888 3.70222 7.62051C3.85579 7.57535 4.02011 7.62386 4.13267 7.73768Z" fill="#3F4042"/>
</svg>
