<svg width="38" height="38" viewBox="0 0 38 38" fill="none" xmlns="http://www.w3.org/2000/svg">
<path d="M2.4165 12.6667C2.4165 13.081 2.75229 13.4167 3.1665 13.4167C3.58072 13.4167 3.9165 13.081 3.9165 12.6667H2.4165ZM34.0832 12.6667C34.0832 13.081 34.419 13.4167 34.8332 13.4167C35.2474 13.4167 35.5832 13.081 35.5832 12.6667H34.0832ZM19.7498 7.91675C19.7498 7.50253 19.414 7.16675 18.9998 7.16675C18.5856 7.16675 18.2498 7.50253 18.2498 7.91675H19.7498ZM18.2498 19.0001C18.2498 19.4143 18.5856 19.7501 18.9998 19.7501C19.414 19.7501 19.7498 19.4143 19.7498 19.0001H18.2498ZM12.6665 3.91675H25.3332V2.41675H12.6665V3.91675ZM29.3332 7.91675V19.0001H30.8332V7.91675H29.3332ZM30.0832 18.2501H7.9165V19.7501H30.0832V18.2501ZM8.6665 19.0001V7.91675H7.1665V19.0001H8.6665ZM25.3332 3.91675C27.5423 3.91675 29.3332 5.70761 29.3332 7.91675H30.8332C30.8332 4.87918 28.3707 2.41675 25.3332 2.41675V3.91675ZM12.6665 2.41675C9.62894 2.41675 7.1665 4.87918 7.1665 7.91675H8.6665C8.6665 5.70761 10.4574 3.91675 12.6665 3.91675V2.41675ZM32.4998 22.1667V25.3334H33.9998V22.1667H32.4998ZM30.0832 27.7501H7.9165V29.2501H30.0832V27.7501ZM5.49984 25.3334V22.1667H3.99984V25.3334H5.49984ZM7.9165 27.7501C6.58182 27.7501 5.49984 26.6681 5.49984 25.3334H3.99984C3.99984 27.4965 5.75339 29.2501 7.9165 29.2501V27.7501ZM32.4998 25.3334C32.4998 26.6681 31.4179 27.7501 30.0832 27.7501V29.2501C32.2463 29.2501 33.9998 27.4965 33.9998 25.3334H32.4998ZM30.0832 19.7501C31.4179 19.7501 32.4998 20.8321 32.4998 22.1667H33.9998C33.9998 20.0036 32.2463 18.2501 30.0832 18.2501V19.7501ZM7.9165 18.2501C5.75339 18.2501 3.99984 20.0036 3.99984 22.1667H5.49984C5.49984 20.8321 6.58182 19.7501 7.9165 19.7501V18.2501ZM11.0832 29.2501H14.2498V27.7501H11.0832V29.2501ZM15.0832 30.0834V33.2501H16.5832V30.0834H15.0832ZM14.2498 34.0834H11.0832V35.5834H14.2498V34.0834ZM10.2498 33.2501V30.0834H8.74984V33.2501H10.2498ZM11.0832 34.0834C10.6229 34.0834 10.2498 33.7103 10.2498 33.2501H8.74984C8.74984 34.5387 9.79451 35.5834 11.0832 35.5834V34.0834ZM15.0832 33.2501C15.0832 33.7103 14.7101 34.0834 14.2498 34.0834V35.5834C15.5385 35.5834 16.5832 34.5387 16.5832 33.2501H15.0832ZM14.2498 29.2501C14.7101 29.2501 15.0832 29.6232 15.0832 30.0834H16.5832C16.5832 28.7947 15.5385 27.7501 14.2498 27.7501V29.2501ZM11.0832 27.7501C9.79451 27.7501 8.74984 28.7947 8.74984 30.0834H10.2498C10.2498 29.6232 10.6229 29.2501 11.0832 29.2501V27.7501ZM23.7498 29.2501H26.9165V27.7501H23.7498V29.2501ZM27.7498 30.0834V33.2501H29.2498V30.0834H27.7498ZM26.9165 34.0834H23.7498V35.5834H26.9165V34.0834ZM22.9165 33.2501V30.0834H21.4165V33.2501H22.9165ZM23.7498 34.0834C23.2896 34.0834 22.9165 33.7103 22.9165 33.2501H21.4165C21.4165 34.5387 22.4612 35.5834 23.7498 35.5834V34.0834ZM27.7498 33.2501C27.7498 33.7103 27.3767 34.0834 26.9165 34.0834V35.5834C28.2052 35.5834 29.2498 34.5387 29.2498 33.2501H27.7498ZM26.9165 29.2501C27.3767 29.2501 27.7498 29.6232 27.7498 30.0834H29.2498C29.2498 28.7947 28.2052 27.7501 26.9165 27.7501V29.2501ZM23.7498 27.7501C22.4612 27.7501 21.4165 28.7947 21.4165 30.0834H22.9165C22.9165 29.6232 23.2896 29.2501 23.7498 29.2501V27.7501ZM3.9165 12.6667V11.0834H2.4165V12.6667H3.9165ZM6.33317 8.66675H7.9165V7.16675H6.33317V8.66675ZM3.9165 11.0834C3.9165 9.74873 4.99848 8.66675 6.33317 8.66675V7.16675C4.17006 7.16675 2.4165 8.9203 2.4165 11.0834H3.9165ZM35.5832 12.6667V11.0834H34.0832V12.6667H35.5832ZM31.6665 7.16675H30.0832V8.66675H31.6665V7.16675ZM35.5832 11.0834C35.5832 8.9203 33.8296 7.16675 31.6665 7.16675V8.66675C33.0012 8.66675 34.0832 9.74873 34.0832 11.0834H35.5832ZM18.2498 7.91675V19.0001H19.7498V7.91675H18.2498ZM30.0832 7.16675H7.9165V8.66675H30.0832V7.16675Z" fill="#FF8469"/>
</svg>
