<svg width="35" height="35" viewBox="0 0 35 35" fill="none" xmlns="http://www.w3.org/2000/svg">
<path d="M27.7085 12.7605C24.6897 12.7605 22.2397 10.3105 22.2397 7.29175C22.2397 4.273 24.6897 1.823 27.7085 1.823C30.7272 1.823 33.1772 4.273 33.1772 7.29175C33.1772 10.3105 30.7272 12.7605 27.7085 12.7605ZM27.7085 4.0105C25.9002 4.0105 24.4272 5.48341 24.4272 7.29175C24.4272 9.10008 25.9002 10.573 27.7085 10.573C29.5168 10.573 30.9897 9.10008 30.9897 7.29175C30.9897 5.48341 29.5168 4.0105 27.7085 4.0105Z" fill="#FF8469"/>
<path d="M17.4998 33.1772C8.85192 33.1772 1.82275 26.148 1.82275 17.5001C1.82275 8.85216 8.85192 1.823 17.4998 1.823C18.5644 1.823 19.629 1.92508 20.6644 2.14383C21.2623 2.2605 21.6415 2.84383 21.5103 3.44175C21.3936 4.03966 20.8103 4.41883 20.2269 4.28758C19.3301 4.10018 18.416 4.00731 17.4998 4.0105C10.0623 4.0105 4.01025 10.0626 4.01025 17.5001C4.01025 24.9376 10.0623 30.9897 17.4998 30.9897C24.9373 30.9897 30.9894 24.9376 30.9894 17.5001C30.9894 16.5959 30.9019 15.6917 30.7269 14.8167C30.6103 14.2188 30.9894 13.6501 31.5873 13.5334C32.1853 13.4022 32.754 13.7959 32.8707 14.3938C33.0748 15.4147 33.1769 16.4647 33.1769 17.5147C33.1769 26.148 26.1478 33.1772 17.4998 33.1772Z" fill="#979797"/>
<path d="M17.5166 24.4676C15.6138 24.4676 13.711 24.1655 11.9061 23.5611C11.2201 23.3243 10.6975 22.8425 10.4688 22.2136C10.232 21.5848 10.3136 20.8906 10.6893 20.27L11.6285 18.7101C11.8245 18.3835 12.0041 17.7301 12.0041 17.3463V14.9861C12.0041 11.9481 14.4786 9.47363 17.5166 9.47363C20.5546 9.47363 23.0291 11.9481 23.0291 14.9861V17.3463C23.0291 17.722 23.2088 18.3835 23.4048 18.7183L24.3358 20.27C24.687 20.858 24.7523 21.5685 24.5155 22.2136C24.3998 22.5293 24.2141 22.8145 23.9722 23.0479C23.7303 23.2814 23.4385 23.4568 23.119 23.5611C21.3223 24.1655 19.4195 24.4676 17.5166 24.4676ZM17.5166 10.6986C15.1565 10.6986 13.2291 12.6178 13.2291 14.9861V17.3463C13.2291 17.9425 12.9841 18.8245 12.682 19.339L11.7428 20.8988C11.5631 21.201 11.5141 21.5195 11.6203 21.789C11.7183 22.0666 11.9633 22.279 12.2981 22.3933C15.686 23.5366 19.3554 23.5366 22.7433 22.3933C23.0373 22.2953 23.266 22.0748 23.3721 21.7808C23.4783 21.4868 23.4538 21.1683 23.2905 20.8988L22.3513 19.339C22.041 18.8081 21.8041 17.9343 21.8041 17.3381V14.9861C21.8041 12.6178 19.885 10.6986 17.5166 10.6986V10.6986Z" fill="#3F4042"/>
<path d="M19.0356 10.9176C18.9784 10.9176 18.9213 10.9094 18.8641 10.8931C18.6273 10.8278 18.3986 10.7788 18.1781 10.7461C17.4839 10.6563 16.8143 10.7053 16.1854 10.8931C15.9568 10.9666 15.7118 10.8931 15.5566 10.7216C15.4793 10.6371 15.4275 10.5324 15.4073 10.4196C15.387 10.3069 15.3992 10.1907 15.4423 10.0846C15.6049 9.66485 15.891 9.30432 16.2628 9.05061C16.6346 8.7969 17.0746 8.66195 17.5248 8.66359C18.4558 8.66359 19.2724 9.21892 19.6073 10.0846C19.6889 10.3051 19.6481 10.5501 19.4929 10.7216C19.3704 10.8523 19.1989 10.9176 19.0356 10.9176V10.9176ZM17.5166 26.3273C16.7081 26.3273 15.9241 26.0006 15.3524 25.4289C14.7808 24.8573 14.4541 24.0733 14.4541 23.2648H15.6791C15.6791 23.7466 15.8751 24.2203 16.2181 24.5633C16.5611 24.9063 17.0348 25.1023 17.5166 25.1023C18.5293 25.1023 19.3541 24.2774 19.3541 23.2648H20.5791C20.5791 24.9553 19.2071 26.3273 17.5166 26.3273Z" fill="#3F4042"/>
</svg>
