<svg width="129" height="44" viewBox="0 0 129 44" fill="none" xmlns="http://www.w3.org/2000/svg">
<rect x="0.640625" width="128" height="44" rx="12" fill="#FF8469"/>
<rect width="30.4749" height="30" transform="translate(12.6406 7)" fill="#FF8469"/>
<path d="M35.4719 20.4875V25.4875C35.4719 25.8125 35.4592 26.125 35.4211 26.425C35.129 29.8 33.1101 31.475 29.3896 31.475H28.8817C28.5642 31.475 28.2595 31.625 28.069 31.875L26.5453 33.875C25.8723 34.7625 24.7803 34.7625 24.1073 33.875L22.5835 31.875C22.4819 31.7585 22.3577 31.6631 22.2181 31.5944C22.0786 31.5257 21.9265 31.4851 21.7709 31.475H21.263C17.2123 31.475 15.1807 30.4875 15.1807 25.4875V20.4875C15.1807 16.825 16.8949 14.8375 20.3106 14.55C20.6154 14.5125 20.9328 14.5 21.263 14.5H29.3896C33.4402 14.5 35.4719 16.5 35.4719 20.4875Z" stroke="white" stroke-width="1.5" stroke-miterlimit="10" stroke-linecap="round" stroke-linejoin="round"/>
<path d="M40.551 15.4875V20.4875C40.551 24.1625 38.8368 26.1375 35.421 26.425C35.4591 26.125 35.4718 25.8125 35.4718 25.4875V20.4875C35.4718 16.5 33.4402 14.5 29.3895 14.5H21.2629C20.9327 14.5 20.6153 14.5125 20.3105 14.55C20.6026 11.1875 22.6216 9.5 26.342 9.5H34.4687C38.5193 9.5 40.551 11.5 40.551 15.4875V15.4875Z" stroke="white" stroke-width="1.5" stroke-miterlimit="10" stroke-linecap="round" stroke-linejoin="round"/>
<path d="M29.7762 23.5625H29.7889M25.332 23.5625H25.3447M20.8877 23.5625H20.9004" stroke="white" stroke-width="2" stroke-linecap="round" stroke-linejoin="round"/>
<path d="M57.875 22.2969H59.8281C59.7656 23.0417 59.5573 23.7057 59.2031 24.2891C58.849 24.8672 58.3516 25.3229 57.7109 25.6562C57.0703 25.9896 56.2917 26.1562 55.375 26.1562C54.6719 26.1562 54.0391 26.0312 53.4766 25.7812C52.9141 25.526 52.4323 25.1667 52.0312 24.7031C51.6302 24.2344 51.3229 23.6693 51.1094 23.0078C50.901 22.3464 50.7969 21.6068 50.7969 20.7891V19.8438C50.7969 19.026 50.9036 18.2865 51.1172 17.625C51.3359 16.9635 51.6484 16.3984 52.0547 15.9297C52.4609 15.4557 52.9479 15.0938 53.5156 14.8438C54.0885 14.5938 54.7318 14.4688 55.4453 14.4688C56.3516 14.4688 57.1172 14.6354 57.7422 14.9688C58.3672 15.3021 58.8516 15.763 59.1953 16.3516C59.5443 16.9401 59.7578 17.6146 59.8359 18.375H57.8828C57.8307 17.8854 57.7161 17.4661 57.5391 17.1172C57.3672 16.7682 57.112 16.5026 56.7734 16.3203C56.4349 16.1328 55.9922 16.0391 55.4453 16.0391C54.9974 16.0391 54.6068 16.1224 54.2734 16.2891C53.9401 16.4557 53.6615 16.7005 53.4375 17.0234C53.2135 17.3464 53.0443 17.7448 52.9297 18.2188C52.8203 18.6875 52.7656 19.224 52.7656 19.8281V20.7891C52.7656 21.362 52.8151 21.8828 52.9141 22.3516C53.0182 22.8151 53.1745 23.2135 53.3828 23.5469C53.5964 23.8802 53.8672 24.138 54.1953 24.3203C54.5234 24.5026 54.9167 24.5938 55.375 24.5938C55.9323 24.5938 56.3828 24.5052 56.7266 24.3281C57.0755 24.151 57.3385 23.8932 57.5156 23.5547C57.6979 23.2109 57.8177 22.7917 57.875 22.2969ZM61.0625 21.8672V21.6875C61.0625 21.0781 61.151 20.513 61.3281 19.9922C61.5052 19.4661 61.7604 19.0104 62.0938 18.625C62.4323 18.2344 62.8438 17.9323 63.3281 17.7188C63.8177 17.5 64.3698 17.3906 64.9844 17.3906C65.6042 17.3906 66.1562 17.5 66.6406 17.7188C67.1302 17.9323 67.5443 18.2344 67.8828 18.625C68.2214 19.0104 68.4792 19.4661 68.6562 19.9922C68.8333 20.513 68.9219 21.0781 68.9219 21.6875V21.8672C68.9219 22.4766 68.8333 23.0417 68.6562 23.5625C68.4792 24.0833 68.2214 24.5391 67.8828 24.9297C67.5443 25.3151 67.1328 25.6172 66.6484 25.8359C66.1641 26.0495 65.6146 26.1562 65 26.1562C64.3802 26.1562 63.8255 26.0495 63.3359 25.8359C62.8516 25.6172 62.4401 25.3151 62.1016 24.9297C61.763 24.5391 61.5052 24.0833 61.3281 23.5625C61.151 23.0417 61.0625 22.4766 61.0625 21.8672ZM62.9453 21.6875V21.8672C62.9453 22.2474 62.9844 22.6068 63.0625 22.9453C63.1406 23.2839 63.263 23.5807 63.4297 23.8359C63.5964 24.0911 63.8099 24.2917 64.0703 24.4375C64.3307 24.5833 64.6406 24.6562 65 24.6562C65.349 24.6562 65.651 24.5833 65.9062 24.4375C66.1667 24.2917 66.3802 24.0911 66.5469 23.8359C66.7135 23.5807 66.8359 23.2839 66.9141 22.9453C66.9974 22.6068 67.0391 22.2474 67.0391 21.8672V21.6875C67.0391 21.3125 66.9974 20.9583 66.9141 20.625C66.8359 20.2865 66.7109 19.987 66.5391 19.7266C66.3724 19.4661 66.1589 19.263 65.8984 19.1172C65.6432 18.9661 65.3385 18.8906 64.9844 18.8906C64.6302 18.8906 64.3229 18.9661 64.0625 19.1172C63.8073 19.263 63.5964 19.4661 63.4297 19.7266C63.263 19.987 63.1406 20.2865 63.0625 20.625C62.9844 20.9583 62.9453 21.3125 62.9453 21.6875ZM72.3672 19.3516V26H70.4844V17.5469H72.2578L72.3672 19.3516ZM72.0312 21.4609L71.4219 21.4531C71.4271 20.8542 71.5104 20.3047 71.6719 19.8047C71.8385 19.3047 72.0677 18.875 72.3594 18.5156C72.6562 18.1562 73.0104 17.8802 73.4219 17.6875C73.8333 17.4896 74.2917 17.3906 74.7969 17.3906C75.2031 17.3906 75.5703 17.4479 75.8984 17.5625C76.2318 17.6719 76.5156 17.8516 76.75 18.1016C76.9896 18.3516 77.1719 18.6771 77.2969 19.0781C77.4219 19.474 77.4844 19.9609 77.4844 20.5391V26H75.5938V20.5312C75.5938 20.125 75.5339 19.8047 75.4141 19.5703C75.2995 19.3307 75.1302 19.1615 74.9062 19.0625C74.6875 18.9583 74.4141 18.9062 74.0859 18.9062C73.763 18.9062 73.474 18.974 73.2188 19.1094C72.9635 19.2448 72.7474 19.4297 72.5703 19.6641C72.3984 19.8984 72.2656 20.1693 72.1719 20.4766C72.0781 20.7839 72.0312 21.112 72.0312 21.4609ZM82.8594 24.6562C83.1667 24.6562 83.4427 24.5964 83.6875 24.4766C83.9375 24.3516 84.138 24.1797 84.2891 23.9609C84.4453 23.7422 84.5312 23.4896 84.5469 23.2031H86.3203C86.3099 23.75 86.1484 24.2474 85.8359 24.6953C85.5234 25.1432 85.1094 25.5 84.5938 25.7656C84.0781 26.026 83.5078 26.1562 82.8828 26.1562C82.237 26.1562 81.6745 26.0469 81.1953 25.8281C80.7161 25.6042 80.3177 25.2969 80 24.9062C79.6823 24.5156 79.4427 24.0651 79.2812 23.5547C79.125 23.0443 79.0469 22.4974 79.0469 21.9141V21.6406C79.0469 21.0573 79.125 20.5104 79.2812 20C79.4427 19.4844 79.6823 19.0312 80 18.6406C80.3177 18.25 80.7161 17.9453 81.1953 17.7266C81.6745 17.5026 82.2344 17.3906 82.875 17.3906C83.5521 17.3906 84.1458 17.526 84.6562 17.7969C85.1667 18.0625 85.5677 18.4349 85.8594 18.9141C86.1562 19.388 86.3099 19.9401 86.3203 20.5703H84.5469C84.5312 20.2578 84.4531 19.9766 84.3125 19.7266C84.1771 19.4714 83.9844 19.2682 83.7344 19.1172C83.4896 18.9661 83.1953 18.8906 82.8516 18.8906C82.4714 18.8906 82.1562 18.9688 81.9062 19.125C81.6562 19.276 81.4609 19.4844 81.3203 19.75C81.1797 20.0104 81.0781 20.3047 81.0156 20.6328C80.9583 20.9557 80.9297 21.2917 80.9297 21.6406V21.9141C80.9297 22.263 80.9583 22.6016 81.0156 22.9297C81.0729 23.2578 81.1719 23.5521 81.3125 23.8125C81.4583 24.0677 81.6562 24.2734 81.9062 24.4297C82.1562 24.5807 82.474 24.6562 82.8594 24.6562ZM92.5312 24.3047V20.2734C92.5312 19.9714 92.4766 19.7109 92.3672 19.4922C92.2578 19.2734 92.0911 19.1042 91.8672 18.9844C91.6484 18.8646 91.3724 18.8047 91.0391 18.8047C90.7318 18.8047 90.4661 18.8568 90.2422 18.9609C90.0182 19.0651 89.8438 19.2057 89.7188 19.3828C89.5938 19.5599 89.5312 19.7604 89.5312 19.9844H87.6562C87.6562 19.651 87.737 19.3281 87.8984 19.0156C88.0599 18.7031 88.2943 18.4245 88.6016 18.1797C88.9089 17.9349 89.276 17.7422 89.7031 17.6016C90.1302 17.4609 90.6094 17.3906 91.1406 17.3906C91.776 17.3906 92.3385 17.4974 92.8281 17.7109C93.3229 17.9245 93.7109 18.2474 93.9922 18.6797C94.2786 19.1068 94.4219 19.6432 94.4219 20.2891V24.0469C94.4219 24.4323 94.4479 24.7786 94.5 25.0859C94.5573 25.388 94.638 25.651 94.7422 25.875V26H92.8125C92.724 25.7969 92.6536 25.5391 92.6016 25.2266C92.5547 24.9089 92.5312 24.6016 92.5312 24.3047ZM92.8047 20.8594L92.8203 22.0234H91.4688C91.1198 22.0234 90.8125 22.0573 90.5469 22.125C90.2812 22.1875 90.0599 22.2812 89.8828 22.4062C89.7057 22.5312 89.5729 22.6823 89.4844 22.8594C89.3958 23.0365 89.3516 23.237 89.3516 23.4609C89.3516 23.6849 89.4036 23.8906 89.5078 24.0781C89.612 24.2604 89.763 24.4036 89.9609 24.5078C90.1641 24.612 90.4089 24.6641 90.6953 24.6641C91.0807 24.6641 91.4167 24.5859 91.7031 24.4297C91.9948 24.2682 92.224 24.0729 92.3906 23.8438C92.5573 23.6094 92.6458 23.388 92.6562 23.1797L93.2656 24.0156C93.2031 24.2292 93.0964 24.4583 92.9453 24.7031C92.7943 24.9479 92.5964 25.1823 92.3516 25.4062C92.112 25.625 91.8229 25.8047 91.4844 25.9453C91.151 26.0859 90.7656 26.1562 90.3281 26.1562C89.776 26.1562 89.2839 26.0469 88.8516 25.8281C88.4193 25.6042 88.0807 25.3047 87.8359 24.9297C87.5911 24.5495 87.4688 24.1198 87.4688 23.6406C87.4688 23.1927 87.5521 22.7969 87.7188 22.4531C87.8906 22.1042 88.1406 21.8125 88.4688 21.5781C88.8021 21.3438 89.2083 21.1667 89.6875 21.0469C90.1667 20.9219 90.7135 20.8594 91.3281 20.8594H92.8047ZM100.266 17.5469V18.9219H95.5V17.5469H100.266ZM96.875 15.4766H98.7578V23.6641C98.7578 23.9245 98.7943 24.125 98.8672 24.2656C98.9453 24.401 99.0521 24.4922 99.1875 24.5391C99.3229 24.5859 99.4818 24.6094 99.6641 24.6094C99.7943 24.6094 99.9193 24.6016 100.039 24.5859C100.159 24.5703 100.255 24.5547 100.328 24.5391L100.336 25.9766C100.18 26.0234 99.9974 26.0651 99.7891 26.1016C99.5859 26.138 99.3516 26.1562 99.0859 26.1562C98.6536 26.1562 98.2708 26.0807 97.9375 25.9297C97.6042 25.7734 97.3438 25.5208 97.1562 25.1719C96.9688 24.8229 96.875 24.3594 96.875 23.7812V15.4766Z" fill="white"/>
</svg>
