<svg width="129" height="44" viewBox="0 0 129 44" fill="none" xmlns="http://www.w3.org/2000/svg">
<rect x="0.640625" width="128" height="44" rx="12" fill="#FF8469"/>
<rect width="30.4749" height="30" transform="translate(12.6406 7)" fill="#FF8469"/>
<path d="M35.4719 20.4875V25.4875C35.4719 25.8125 35.4592 26.125 35.4211 26.425C35.129 29.8 33.1101 31.475 29.3896 31.475H28.8817C28.5642 31.475 28.2595 31.625 28.069 31.875L26.5453 33.875C25.8723 34.7625 24.7803 34.7625 24.1073 33.875L22.5835 31.875C22.4819 31.7585 22.3577 31.6631 22.2181 31.5944C22.0786 31.5257 21.9265 31.4851 21.7709 31.475H21.263C17.2123 31.475 15.1807 30.4875 15.1807 25.4875V20.4875C15.1807 16.825 16.8949 14.8375 20.3106 14.55C20.6154 14.5125 20.9328 14.5 21.263 14.5H29.3896C33.4402 14.5 35.4719 16.5 35.4719 20.4875Z" stroke="white" stroke-width="1.5" stroke-miterlimit="10" stroke-linecap="round" stroke-linejoin="round"/>
<path d="M40.551 15.4875V20.4875C40.551 24.1625 38.8368 26.1375 35.421 26.425C35.4591 26.125 35.4718 25.8125 35.4718 25.4875V20.4875C35.4718 16.5 33.4402 14.5 29.3895 14.5H21.2629C20.9327 14.5 20.6153 14.5125 20.3105 14.55C20.6026 11.1875 22.6216 9.5 26.342 9.5H34.4687C38.5193 9.5 40.551 11.5 40.551 15.4875V15.4875Z" stroke="white" stroke-width="1.5" stroke-miterlimit="10" stroke-linecap="round" stroke-linejoin="round"/>
<path d="M29.7762 23.5625H29.7889M25.332 23.5625H25.3447M20.8877 23.5625H20.9004" stroke="white" stroke-width="2" stroke-linecap="round" stroke-linejoin="round"/>
<path d="M57.875 22.2969H59.8281C59.7656 23.0417 59.5573 23.7057 59.2031 24.2891C58.849 24.8672 58.3516 25.3229 57.7109 25.6562C57.0703 25.9896 56.2917 26.1562 55.375 26.1562C54.6719 26.1562 54.0391 26.0312 53.4766 25.7812C52.9141 25.526 52.4323 25.1667 52.0312 24.7031C51.6302 24.2344 51.3229 23.6693 51.1094 23.0078C50.901 22.3464 50.7969 21.6068 50.7969 20.7891V19.8438C50.7969 19.026 50.9036 18.2865 51.1172 17.625C51.3359 16.9635 51.6484 16.3984 52.0547 15.9297C52.4609 15.4557 52.9479 15.0938 53.5156 14.8438C54.0885 14.5938 54.7318 14.4688 55.4453 14.4688C56.3516 14.4688 57.1172 14.6354 57.7422 14.9688C58.3672 15.3021 58.8516 15.763 59.1953 16.3516C59.5443 16.9401 59.7578 17.6146 59.8359 18.375H57.8828C57.8307 17.8854 57.7161 17.4661 57.5391 17.1172C57.3672 16.7682 57.112 16.5026 56.7734 16.3203C56.4349 16.1328 55.9922 16.0391 55.4453 16.0391C54.9974 16.0391 54.6068 16.1224 54.2734 16.2891C53.9401 16.4557 53.6615 16.7005 53.4375 17.0234C53.2135 17.3464 53.0443 17.7448 52.9297 18.2188C52.8203 18.6875 52.7656 19.224 52.7656 19.8281V20.7891C52.7656 21.362 52.8151 21.8828 52.9141 22.3516C53.0182 22.8151 53.1745 23.2135 53.3828 23.5469C53.5964 23.8802 53.8672 24.138 54.1953 24.3203C54.5234 24.5026 54.9167 24.5938 55.375 24.5938C55.9323 24.5938 56.3828 24.5052 56.7266 24.3281C57.0755 24.151 57.3385 23.8932 57.5156 23.5547C57.6979 23.2109 57.8177 22.7917 57.875 22.2969ZM61.0625 21.8672V21.6875C61.0625 21.0781 61.151 20.513 61.3281 19.9922C61.5052 19.4661 61.7604 19.0104 62.0938 18.625C62.4323 18.2344 62.8438 17.9323 63.3281 17.7188C63.8177 17.5 64.3698 17.3906 64.9844 17.3906C65.6042 17.3906 66.1562 17.5 66.6406 17.7188C67.1302 17.9323 67.5443 18.2344 67.8828 18.625C68.2214 19.0104 68.4792 19.4661 68.6562 19.9922C68.8333 20.513 68.9219 21.0781 68.9219 21.6875V21.8672C68.9219 22.4766 68.8333 23.0417 68.6562 23.5625C68.4792 24.0833 68.2214 24.5391 67.8828 24.9297C67.5443 25.3151 67.1328 25.6172 66.6484 25.8359C66.1641 26.0495 65.6146 26.1562 65 26.1562C64.3802 26.1562 63.8255 26.0495 63.3359 25.8359C62.8516 25.6172 62.4401 25.3151 62.1016 24.9297C61.763 24.5391 61.5052 24.0833 61.3281 23.5625C61.151 23.0417 61.0625 22.4766 61.0625 21.8672ZM62.9453 21.6875V21.8672C62.9453 22.2474 62.9844 22.6068 63.0625 22.9453C63.1406 23.2839 63.263 23.5807 63.4297 23.8359C63.5964 24.0911 63.8099 24.2917 64.0703 24.4375C64.3307 24.5833 64.6406 24.6562 65 24.6562C65.349 24.6562 65.651 24.5833 65.9062 24.4375C66.1667 24.2917 66.3802 24.0911 66.5469 23.8359C66.7135 23.5807 66.8359 23.2839 66.9141 22.9453C66.9974 22.6068 67.0391 22.2474 67.0391 21.8672V21.6875C67.0391 21.3125 66.9974 20.9583 66.9141 20.625C66.8359 20.2865 66.7109 19.987 66.5391 19.7266C66.3724 19.4661 66.1589 19.263 65.8984 19.1172C65.6432 18.9661 65.3385 18.8906 64.9844 18.8906C64.6302 18.8906 64.3229 18.9661 64.0625 19.1172C63.8073 19.263 63.5964 19.4661 63.4297 19.7266C63.263 19.987 63.1406 20.2865 63.0625 20.625C62.9844 20.9583 62.9453 21.3125 62.9453 21.6875ZM72.3672 19.3516V26H70.4844V17.5469H72.2578L72.3672 19.3516ZM72.0312 21.4609L71.4219 21.4531C71.4271 20.8542 71.5104 20.3047 71.6719 19.8047C71.8385 19.3047 72.0677 18.875 72.3594 18.5156C72.6562 18.1562 73.0104 17.8802 73.4219 17.6875C73.8333 17.4896 74.2917 17.3906 74.7969 17.3906C75.2031 17.3906 75.5703 17.4479 75.8984 17.5625C76.2318 17.6719 76.5156 17.8516 76.75 18.1016C76.9896 18.3516 77.1719 18.6771 77.2969 19.0781C77.4219 19.474 77.4844 19.9609 77.4844 20.5391V26H75.5938V20.5312C75.5938 20.125 75.5339 19.8047 75.4141 19.5703C75.2995 19.3307 75.1302 19.1615 74.9062 19.0625C74.6875 18.9583 74.4141 18.9062 74.0859 18.9062C73.763 18.9062 73.474 18.974 73.2188 19.1094C72.9635 19.2448 72.7474 19.4297 72.5703 19.6641C72.3984 19.8984 72.2656 20.1693 72.1719 20.4766C72.0781 20.7839 72.0312 21.112 72.0312 21.4609ZM83.2812 17.5469V18.9219H78.5156V17.5469H83.2812ZM79.8906 15.4766H81.7734V23.6641C81.7734 23.9245 81.8099 24.125 81.8828 24.2656C81.9609 24.401 82.0677 24.4922 82.2031 24.5391C82.3385 24.5859 82.4974 24.6094 82.6797 24.6094C82.8099 24.6094 82.9349 24.6016 83.0547 24.5859C83.1745 24.5703 83.2708 24.5547 83.3438 24.5391L83.3516 25.9766C83.1953 26.0234 83.013 26.0651 82.8047 26.1016C82.6016 26.138 82.3672 26.1562 82.1016 26.1562C81.6693 26.1562 81.2865 26.0807 80.9531 25.9297C80.6198 25.7734 80.3594 25.5208 80.1719 25.1719C79.9844 24.8229 79.8906 24.3594 79.8906 23.7812V15.4766ZM89.5 24.3047V20.2734C89.5 19.9714 89.4453 19.7109 89.3359 19.4922C89.2266 19.2734 89.0599 19.1042 88.8359 18.9844C88.6172 18.8646 88.3411 18.8047 88.0078 18.8047C87.7005 18.8047 87.4349 18.8568 87.2109 18.9609C86.987 19.0651 86.8125 19.2057 86.6875 19.3828C86.5625 19.5599 86.5 19.7604 86.5 19.9844H84.625C84.625 19.651 84.7057 19.3281 84.8672 19.0156C85.0286 18.7031 85.263 18.4245 85.5703 18.1797C85.8776 17.9349 86.2448 17.7422 86.6719 17.6016C87.099 17.4609 87.5781 17.3906 88.1094 17.3906C88.7448 17.3906 89.3073 17.4974 89.7969 17.7109C90.2917 17.9245 90.6797 18.2474 90.9609 18.6797C91.2474 19.1068 91.3906 19.6432 91.3906 20.2891V24.0469C91.3906 24.4323 91.4167 24.7786 91.4688 25.0859C91.526 25.388 91.6068 25.651 91.7109 25.875V26H89.7812C89.6927 25.7969 89.6224 25.5391 89.5703 25.2266C89.5234 24.9089 89.5 24.6016 89.5 24.3047ZM89.7734 20.8594L89.7891 22.0234H88.4375C88.0885 22.0234 87.7812 22.0573 87.5156 22.125C87.25 22.1875 87.0286 22.2812 86.8516 22.4062C86.6745 22.5312 86.5417 22.6823 86.4531 22.8594C86.3646 23.0365 86.3203 23.237 86.3203 23.4609C86.3203 23.6849 86.3724 23.8906 86.4766 24.0781C86.5807 24.2604 86.7318 24.4036 86.9297 24.5078C87.1328 24.612 87.3776 24.6641 87.6641 24.6641C88.0495 24.6641 88.3854 24.5859 88.6719 24.4297C88.9635 24.2682 89.1927 24.0729 89.3594 23.8438C89.526 23.6094 89.6146 23.388 89.625 23.1797L90.2344 24.0156C90.1719 24.2292 90.0651 24.4583 89.9141 24.7031C89.763 24.9479 89.5651 25.1823 89.3203 25.4062C89.0807 25.625 88.7917 25.8047 88.4531 25.9453C88.1198 26.0859 87.7344 26.1562 87.2969 26.1562C86.7448 26.1562 86.2526 26.0469 85.8203 25.8281C85.388 25.6042 85.0495 25.3047 84.8047 24.9297C84.5599 24.5495 84.4375 24.1198 84.4375 23.6406C84.4375 23.1927 84.5208 22.7969 84.6875 22.4531C84.8594 22.1042 85.1094 21.8125 85.4375 21.5781C85.7708 21.3438 86.1771 21.1667 86.6562 21.0469C87.1354 20.9219 87.6823 20.8594 88.2969 20.8594H89.7734ZM96.8125 24.6562C97.1198 24.6562 97.3958 24.5964 97.6406 24.4766C97.8906 24.3516 98.0911 24.1797 98.2422 23.9609C98.3984 23.7422 98.4844 23.4896 98.5 23.2031H100.273C100.263 23.75 100.102 24.2474 99.7891 24.6953C99.4766 25.1432 99.0625 25.5 98.5469 25.7656C98.0312 26.026 97.4609 26.1562 96.8359 26.1562C96.1901 26.1562 95.6276 26.0469 95.1484 25.8281C94.6693 25.6042 94.2708 25.2969 93.9531 24.9062C93.6354 24.5156 93.3958 24.0651 93.2344 23.5547C93.0781 23.0443 93 22.4974 93 21.9141V21.6406C93 21.0573 93.0781 20.5104 93.2344 20C93.3958 19.4844 93.6354 19.0312 93.9531 18.6406C94.2708 18.25 94.6693 17.9453 95.1484 17.7266C95.6276 17.5026 96.1875 17.3906 96.8281 17.3906C97.5052 17.3906 98.099 17.526 98.6094 17.7969C99.1198 18.0625 99.5208 18.4349 99.8125 18.9141C100.109 19.388 100.263 19.9401 100.273 20.5703H98.5C98.4844 20.2578 98.4062 19.9766 98.2656 19.7266C98.1302 19.4714 97.9375 19.2682 97.6875 19.1172C97.4427 18.9661 97.1484 18.8906 96.8047 18.8906C96.4245 18.8906 96.1094 18.9688 95.8594 19.125C95.6094 19.276 95.4141 19.4844 95.2734 19.75C95.1328 20.0104 95.0312 20.3047 94.9688 20.6328C94.9115 20.9557 94.8828 21.2917 94.8828 21.6406V21.9141C94.8828 22.263 94.9115 22.6016 94.9688 22.9297C95.026 23.2578 95.125 23.5521 95.2656 23.8125C95.4115 24.0677 95.6094 24.2734 95.8594 24.4297C96.1094 24.5807 96.4271 24.6562 96.8125 24.6562ZM105.594 17.5469V18.9219H100.828V17.5469H105.594ZM102.203 15.4766H104.086V23.6641C104.086 23.9245 104.122 24.125 104.195 24.2656C104.273 24.401 104.38 24.4922 104.516 24.5391C104.651 24.5859 104.81 24.6094 104.992 24.6094C105.122 24.6094 105.247 24.6016 105.367 24.5859C105.487 24.5703 105.583 24.5547 105.656 24.5391L105.664 25.9766C105.508 26.0234 105.326 26.0651 105.117 26.1016C104.914 26.138 104.68 26.1562 104.414 26.1562C103.982 26.1562 103.599 26.0807 103.266 25.9297C102.932 25.7734 102.672 25.5208 102.484 25.1719C102.297 24.8229 102.203 24.3594 102.203 23.7812V15.4766Z" fill="white"/>
</svg>
