<svg width="26" height="26" viewBox="0 0 26 26" fill="none" xmlns="http://www.w3.org/2000/svg">
<path d="M18.4492 7.55054C18.3426 7.44384 18.2084 7.36893 18.0616 7.3342C17.9148 7.29947 17.7612 7.3063 17.6181 7.35392L10.3056 9.79142C10.1858 9.83135 10.077 9.89861 9.9877 9.98788C9.89843 10.0771 9.83117 10.186 9.79124 10.3057L7.35374 17.6182C7.306 17.7614 7.29907 17.915 7.33373 18.0619C7.3684 18.2088 7.44328 18.3431 7.54999 18.4498C7.6567 18.5565 7.79102 18.6314 7.93789 18.6661C8.08477 18.7007 8.2384 18.6938 8.38156 18.646L15.6941 16.2085C15.8138 16.1686 15.9226 16.1014 16.0119 16.0121C16.1012 15.9228 16.1684 15.814 16.2084 15.6942L18.6459 8.38173C18.6935 8.23859 18.7003 8.08502 18.6656 7.93822C18.6309 7.79141 18.5559 7.65718 18.4492 7.55054V7.55054ZM9.40937 16.5912L11.205 11.206L14.7954 14.7964L9.40937 16.5912Z" fill="#386AFF"/>
<path d="M13 24.375C10.7502 24.375 8.551 23.7079 6.68039 22.458C4.80978 21.2081 3.35182 19.4315 2.49088 17.353C1.62993 15.2745 1.40467 12.9874 1.84357 10.7809C2.28248 8.57432 3.36584 6.54749 4.95667 4.95667C6.54749 3.36584 8.57432 2.28248 10.7809 1.84357C12.9874 1.40467 15.2745 1.62993 17.353 2.49088C19.4315 3.35182 21.2081 4.80978 22.458 6.68039C23.7079 8.551 24.375 10.7502 24.375 13C24.3716 16.0158 23.172 18.9071 21.0395 21.0395C18.9071 23.172 16.0158 24.3716 13 24.375V24.375ZM13 3.25001C11.0716 3.25001 9.18657 3.82183 7.5832 4.89318C5.97982 5.96452 4.73013 7.48726 3.99218 9.26884C3.25423 11.0504 3.06114 13.0108 3.43735 14.9021C3.81355 16.7934 4.74215 18.5307 6.10571 19.8943C7.46928 21.2579 9.20656 22.1865 11.0979 22.5627C12.9892 22.9389 14.9496 22.7458 16.7312 22.0078C18.5127 21.2699 20.0355 20.0202 21.1068 18.4168C22.1782 16.8134 22.75 14.9284 22.75 13C22.747 10.4151 21.7188 7.93687 19.891 6.10904C18.0631 4.28121 15.5849 3.25302 13 3.25001V3.25001Z" fill="#386AFF"/>
</svg>
