<svg width="24" height="24" viewBox="0 0 24 24" fill="none" xmlns="http://www.w3.org/2000/svg">
<g clip-path="url(#clip0_670_13638)">
<path d="M10 5.399V20.399M5.75 8.399H3.5M6.5 11.399H3.5M20 16.649V4.579C20 3.379 19.02 2.489 17.83 2.589H17.77C15.67 2.769 12.48 3.839 10.7 4.959L10.53 5.069C10.24 5.249 9.76 5.249 9.47 5.069L9.22 4.919C7.44 3.809 4.26 2.749 2.16 2.579C0.97 2.479 0 3.379 0 4.569V16.649C0 17.609 0.78 18.509 1.74 18.629L2.03 18.669C4.2 18.959 7.55 20.059 9.47 21.109L9.51 21.129C9.78 21.279 10.21 21.279 10.47 21.129C12.39 20.069 15.75 18.959 17.93 18.669L18.26 18.629C19.22 18.509 20 17.609 20 16.649V16.649Z" stroke="#386AFF" stroke-width="1.5" stroke-linecap="round" stroke-linejoin="round"/>
</g>
<defs>
<clipPath id="clip0_670_13638">
<rect width="24" height="24" fill="white"/>
</clipPath>
</defs>
</svg>
