<svg width="312" height="30" viewBox="0 0 312 30" fill="none" xmlns="http://www.w3.org/2000/svg">
<rect x="0.5" y="0.5" width="311" height="29" rx="11.5" stroke="#3F4042"/>
<path d="M134.826 16.0967H132.167V15.0234H134.826C135.341 15.0234 135.758 14.9414 136.077 14.7773C136.396 14.6133 136.629 14.3854 136.774 14.0938C136.925 13.8021 137 13.4694 137 13.0957C137 12.7539 136.925 12.4326 136.774 12.1318C136.629 11.8311 136.396 11.5895 136.077 11.4072C135.758 11.2204 135.341 11.127 134.826 11.127H132.475V20H131.155V10.0469H134.826C135.578 10.0469 136.214 10.1768 136.733 10.4365C137.253 10.6963 137.647 11.0563 137.916 11.5166C138.185 11.9723 138.319 12.4941 138.319 13.082C138.319 13.7201 138.185 14.2646 137.916 14.7158C137.647 15.167 137.253 15.5111 136.733 15.748C136.214 15.9805 135.578 16.0967 134.826 16.0967ZM141.061 13.7656V20H139.796V12.6035H141.026L141.061 13.7656ZM143.371 12.5625L143.364 13.7383C143.259 13.7155 143.159 13.7018 143.063 13.6973C142.972 13.6882 142.868 13.6836 142.749 13.6836C142.457 13.6836 142.2 13.7292 141.977 13.8203C141.753 13.9115 141.564 14.0391 141.409 14.2031C141.254 14.3672 141.131 14.5632 141.04 14.791C140.953 15.0143 140.896 15.2604 140.869 15.5293L140.514 15.7344C140.514 15.2878 140.557 14.8685 140.644 14.4766C140.735 14.0846 140.874 13.7383 141.061 13.4375C141.247 13.1322 141.484 12.8952 141.771 12.7266C142.063 12.5534 142.41 12.4668 142.811 12.4668C142.902 12.4668 143.007 12.4782 143.125 12.501C143.243 12.5192 143.326 12.5397 143.371 12.5625ZM144.068 16.3838V16.2266C144.068 15.6934 144.146 15.1989 144.301 14.7432C144.456 14.2829 144.679 13.8841 144.971 13.5469C145.262 13.2051 145.616 12.9408 146.03 12.7539C146.445 12.5625 146.91 12.4668 147.425 12.4668C147.944 12.4668 148.411 12.5625 148.826 12.7539C149.245 12.9408 149.601 13.2051 149.893 13.5469C150.189 13.8841 150.414 14.2829 150.569 14.7432C150.724 15.1989 150.802 15.6934 150.802 16.2266V16.3838C150.802 16.917 150.724 17.4115 150.569 17.8672C150.414 18.3229 150.189 18.7217 149.893 19.0635C149.601 19.4007 149.248 19.665 148.833 19.8564C148.423 20.0433 147.958 20.1367 147.438 20.1367C146.919 20.1367 146.452 20.0433 146.037 19.8564C145.622 19.665 145.267 19.4007 144.971 19.0635C144.679 18.7217 144.456 18.3229 144.301 17.8672C144.146 17.4115 144.068 16.917 144.068 16.3838ZM145.333 16.2266V16.3838C145.333 16.7529 145.376 17.1016 145.463 17.4297C145.549 17.7533 145.679 18.0404 145.853 18.291C146.03 18.5417 146.251 18.7399 146.516 18.8857C146.78 19.027 147.088 19.0977 147.438 19.0977C147.785 19.0977 148.088 19.027 148.348 18.8857C148.612 18.7399 148.831 18.5417 149.004 18.291C149.177 18.0404 149.307 17.7533 149.394 17.4297C149.485 17.1016 149.53 16.7529 149.53 16.3838V16.2266C149.53 15.862 149.485 15.5179 149.394 15.1943C149.307 14.8662 149.175 14.5768 148.997 14.3262C148.824 14.071 148.605 13.8704 148.341 13.7246C148.081 13.5788 147.776 13.5059 147.425 13.5059C147.078 13.5059 146.773 13.5788 146.509 13.7246C146.249 13.8704 146.03 14.071 145.853 14.3262C145.679 14.5768 145.549 14.8662 145.463 15.1943C145.376 15.5179 145.333 15.862 145.333 16.2266ZM155.348 19.0977C155.648 19.0977 155.926 19.0361 156.182 18.9131C156.437 18.79 156.646 18.6214 156.811 18.4072C156.975 18.1885 157.068 17.9401 157.091 17.6621H158.294C158.271 18.0996 158.123 18.5075 157.85 18.8857C157.581 19.2594 157.228 19.5625 156.79 19.7949C156.353 20.0228 155.872 20.1367 155.348 20.1367C154.792 20.1367 154.306 20.0387 153.892 19.8428C153.481 19.6468 153.14 19.3779 152.866 19.0361C152.597 18.6943 152.395 18.3024 152.258 17.8604C152.126 17.4137 152.06 16.9421 152.06 16.4453V16.1582C152.06 15.6615 152.126 15.1921 152.258 14.75C152.395 14.3034 152.597 13.9092 152.866 13.5674C153.14 13.2256 153.481 12.9567 153.892 12.7607C154.306 12.5648 154.792 12.4668 155.348 12.4668C155.926 12.4668 156.432 12.5853 156.865 12.8223C157.298 13.0547 157.638 13.3737 157.884 13.7793C158.134 14.1803 158.271 14.6361 158.294 15.1465H157.091C157.068 14.8411 156.981 14.5654 156.831 14.3193C156.685 14.0732 156.485 13.8773 156.229 13.7314C155.979 13.5811 155.685 13.5059 155.348 13.5059C154.96 13.5059 154.634 13.5833 154.37 13.7383C154.11 13.8887 153.903 14.0938 153.748 14.3535C153.598 14.6087 153.488 14.8936 153.42 15.208C153.356 15.5179 153.324 15.8346 153.324 16.1582V16.4453C153.324 16.7689 153.356 17.0879 153.42 17.4023C153.484 17.7168 153.591 18.0016 153.741 18.2568C153.896 18.512 154.104 18.7171 154.363 18.8721C154.628 19.0225 154.956 19.0977 155.348 19.0977ZM162.785 20.1367C162.27 20.1367 161.803 20.0501 161.384 19.877C160.969 19.6992 160.611 19.4508 160.311 19.1318C160.014 18.8128 159.786 18.4346 159.627 17.9971C159.467 17.5596 159.388 17.0811 159.388 16.5615V16.2744C159.388 15.6729 159.477 15.1374 159.654 14.668C159.832 14.194 160.074 13.793 160.379 13.4648C160.684 13.1367 161.031 12.8883 161.418 12.7197C161.805 12.5511 162.206 12.4668 162.621 12.4668C163.15 12.4668 163.605 12.5579 163.988 12.7402C164.376 12.9225 164.692 13.1777 164.938 13.5059C165.185 13.8294 165.367 14.2122 165.485 14.6543C165.604 15.0918 165.663 15.5703 165.663 16.0898V16.6572H160.14V15.625H164.398V15.5293C164.38 15.2012 164.312 14.8822 164.193 14.5723C164.079 14.2624 163.897 14.0072 163.646 13.8066C163.396 13.6061 163.054 13.5059 162.621 13.5059C162.334 13.5059 162.07 13.5674 161.828 13.6904C161.587 13.8089 161.379 13.9867 161.206 14.2236C161.033 14.4606 160.898 14.75 160.803 15.0918C160.707 15.4336 160.659 15.8278 160.659 16.2744V16.5615C160.659 16.9124 160.707 17.2428 160.803 17.5527C160.903 17.8581 161.047 18.127 161.233 18.3594C161.425 18.5918 161.655 18.7741 161.924 18.9062C162.197 19.0384 162.507 19.1045 162.854 19.1045C163.3 19.1045 163.678 19.0133 163.988 18.8311C164.298 18.6488 164.569 18.4049 164.802 18.0996L165.567 18.708C165.408 18.9495 165.205 19.1797 164.959 19.3984C164.713 19.6172 164.41 19.7949 164.05 19.9316C163.694 20.0684 163.273 20.1367 162.785 20.1367ZM171.446 18.0381C171.446 17.8558 171.405 17.6872 171.323 17.5322C171.246 17.3727 171.084 17.2292 170.838 17.1016C170.596 16.9694 170.232 16.8555 169.744 16.7598C169.334 16.6732 168.963 16.5706 168.63 16.4521C168.302 16.3337 168.021 16.1901 167.789 16.0215C167.561 15.8529 167.386 15.6546 167.263 15.4268C167.14 15.1989 167.078 14.9323 167.078 14.627C167.078 14.3353 167.142 14.0596 167.27 13.7998C167.402 13.54 167.586 13.3099 167.823 13.1094C168.065 12.9089 168.354 12.7516 168.691 12.6377C169.029 12.5238 169.405 12.4668 169.819 12.4668C170.412 12.4668 170.918 12.5716 171.337 12.7812C171.756 12.9909 172.077 13.2712 172.301 13.6221C172.524 13.9684 172.636 14.3535 172.636 14.7773H171.371C171.371 14.5723 171.31 14.374 171.187 14.1826C171.068 13.9867 170.893 13.8249 170.66 13.6973C170.432 13.5697 170.152 13.5059 169.819 13.5059C169.468 13.5059 169.184 13.5605 168.965 13.6699C168.751 13.7747 168.593 13.9092 168.493 14.0732C168.397 14.2373 168.35 14.4105 168.35 14.5928C168.35 14.7295 168.372 14.8525 168.418 14.9619C168.468 15.0667 168.555 15.1647 168.678 15.2559C168.801 15.3424 168.974 15.4245 169.197 15.502C169.421 15.5794 169.705 15.6569 170.052 15.7344C170.658 15.8711 171.157 16.0352 171.549 16.2266C171.941 16.418 172.232 16.6527 172.424 16.9307C172.615 17.2087 172.711 17.5459 172.711 17.9424C172.711 18.266 172.643 18.5622 172.506 18.8311C172.374 19.0999 172.18 19.3324 171.925 19.5283C171.674 19.7197 171.373 19.8701 171.022 19.9795C170.676 20.0843 170.286 20.1367 169.854 20.1367C169.202 20.1367 168.65 20.0205 168.199 19.7881C167.748 19.5557 167.406 19.2549 167.174 18.8857C166.941 18.5166 166.825 18.127 166.825 17.7168H168.097C168.115 18.0632 168.215 18.3389 168.397 18.5439C168.58 18.7445 168.803 18.888 169.067 18.9746C169.332 19.0566 169.594 19.0977 169.854 19.0977C170.2 19.0977 170.489 19.0521 170.722 18.9609C170.959 18.8698 171.139 18.7445 171.262 18.585C171.385 18.4255 171.446 18.2432 171.446 18.0381ZM178.679 18.0381C178.679 17.8558 178.638 17.6872 178.556 17.5322C178.478 17.3727 178.316 17.2292 178.07 17.1016C177.829 16.9694 177.464 16.8555 176.977 16.7598C176.566 16.6732 176.195 16.5706 175.862 16.4521C175.534 16.3337 175.254 16.1901 175.021 16.0215C174.794 15.8529 174.618 15.6546 174.495 15.4268C174.372 15.1989 174.311 14.9323 174.311 14.627C174.311 14.3353 174.374 14.0596 174.502 13.7998C174.634 13.54 174.819 13.3099 175.056 13.1094C175.297 12.9089 175.587 12.7516 175.924 12.6377C176.261 12.5238 176.637 12.4668 177.052 12.4668C177.644 12.4668 178.15 12.5716 178.569 12.7812C178.989 12.9909 179.31 13.2712 179.533 13.6221C179.757 13.9684 179.868 14.3535 179.868 14.7773H178.604C178.604 14.5723 178.542 14.374 178.419 14.1826C178.3 13.9867 178.125 13.8249 177.893 13.6973C177.665 13.5697 177.384 13.5059 177.052 13.5059C176.701 13.5059 176.416 13.5605 176.197 13.6699C175.983 13.7747 175.826 13.9092 175.726 14.0732C175.63 14.2373 175.582 14.4105 175.582 14.5928C175.582 14.7295 175.605 14.8525 175.65 14.9619C175.701 15.0667 175.787 15.1647 175.91 15.2559C176.033 15.3424 176.206 15.4245 176.43 15.502C176.653 15.5794 176.938 15.6569 177.284 15.7344C177.89 15.8711 178.389 16.0352 178.781 16.2266C179.173 16.418 179.465 16.6527 179.656 16.9307C179.848 17.2087 179.943 17.5459 179.943 17.9424C179.943 18.266 179.875 18.5622 179.738 18.8311C179.606 19.0999 179.412 19.3324 179.157 19.5283C178.907 19.7197 178.606 19.8701 178.255 19.9795C177.909 20.0843 177.519 20.1367 177.086 20.1367C176.434 20.1367 175.883 20.0205 175.432 19.7881C174.98 19.5557 174.639 19.2549 174.406 18.8857C174.174 18.5166 174.058 18.127 174.058 17.7168H175.329C175.347 18.0632 175.448 18.3389 175.63 18.5439C175.812 18.7445 176.035 18.888 176.3 18.9746C176.564 19.0566 176.826 19.0977 177.086 19.0977C177.432 19.0977 177.722 19.0521 177.954 18.9609C178.191 18.8698 178.371 18.7445 178.494 18.585C178.617 18.4255 178.679 18.2432 178.679 18.0381ZM182.979 12.6035V20H181.707V12.6035H182.979ZM181.611 10.6416C181.611 10.4365 181.673 10.2633 181.796 10.1221C181.924 9.98079 182.11 9.91016 182.356 9.91016C182.598 9.91016 182.783 9.98079 182.91 10.1221C183.042 10.2633 183.108 10.4365 183.108 10.6416C183.108 10.8376 183.042 11.0062 182.91 11.1475C182.783 11.2842 182.598 11.3525 182.356 11.3525C182.11 11.3525 181.924 11.2842 181.796 11.1475C181.673 11.0062 181.611 10.8376 181.611 10.6416ZM186.273 14.1826V20H185.009V12.6035H186.205L186.273 14.1826ZM185.973 16.0215L185.446 16.001C185.451 15.4951 185.526 15.028 185.672 14.5996C185.818 14.1667 186.023 13.7907 186.287 13.4717C186.551 13.1527 186.866 12.9066 187.23 12.7334C187.6 12.5557 188.007 12.4668 188.454 12.4668C188.819 12.4668 189.147 12.5169 189.438 12.6172C189.73 12.7129 189.979 12.8678 190.184 13.082C190.393 13.2962 190.553 13.5742 190.662 13.916C190.771 14.2533 190.826 14.6657 190.826 15.1533V20H189.555V15.1396C189.555 14.7523 189.498 14.4424 189.384 14.21C189.27 13.973 189.104 13.8021 188.885 13.6973C188.666 13.5879 188.397 13.5332 188.078 13.5332C187.764 13.5332 187.477 13.5993 187.217 13.7314C186.962 13.8636 186.741 14.0459 186.554 14.2783C186.371 14.5107 186.228 14.7773 186.123 15.0781C186.023 15.3743 185.973 15.6888 185.973 16.0215ZM197.539 12.6035H198.688V19.8428C198.688 20.4945 198.555 21.0505 198.291 21.5107C198.027 21.971 197.658 22.3197 197.184 22.5566C196.714 22.7982 196.172 22.9189 195.557 22.9189C195.301 22.9189 195.001 22.8779 194.654 22.7959C194.312 22.7184 193.975 22.584 193.643 22.3926C193.314 22.2057 193.039 21.9528 192.815 21.6338L193.479 20.8818C193.788 21.2555 194.112 21.5153 194.449 21.6611C194.791 21.807 195.128 21.8799 195.461 21.8799C195.862 21.8799 196.208 21.8047 196.5 21.6543C196.792 21.5039 197.017 21.2806 197.177 20.9844C197.341 20.6927 197.423 20.3327 197.423 19.9043V14.2305L197.539 12.6035ZM192.446 16.3838V16.2402C192.446 15.6751 192.512 15.1624 192.645 14.7021C192.781 14.2373 192.975 13.8385 193.226 13.5059C193.481 13.1732 193.788 12.918 194.148 12.7402C194.508 12.5579 194.914 12.4668 195.365 12.4668C195.83 12.4668 196.236 12.5488 196.582 12.7129C196.933 12.8724 197.229 13.1071 197.471 13.417C197.717 13.7223 197.91 14.0915 198.052 14.5244C198.193 14.9574 198.291 15.4473 198.346 15.9941V16.623C198.296 17.1654 198.198 17.653 198.052 18.0859C197.91 18.5189 197.717 18.888 197.471 19.1934C197.229 19.4987 196.933 19.7334 196.582 19.8975C196.231 20.057 195.821 20.1367 195.352 20.1367C194.91 20.1367 194.508 20.0433 194.148 19.8564C193.793 19.6696 193.488 19.4076 193.232 19.0703C192.977 18.7331 192.781 18.3366 192.645 17.8809C192.512 17.4206 192.446 16.9215 192.446 16.3838ZM193.711 16.2402V16.3838C193.711 16.7529 193.747 17.0993 193.82 17.4229C193.898 17.7464 194.014 18.0312 194.169 18.2773C194.328 18.5234 194.531 18.7171 194.777 18.8584C195.023 18.9951 195.317 19.0635 195.659 19.0635C196.078 19.0635 196.425 18.9746 196.698 18.7969C196.972 18.6191 197.188 18.3844 197.348 18.0928C197.512 17.8011 197.639 17.4844 197.73 17.1426V15.4951C197.68 15.2445 197.603 15.0029 197.498 14.7705C197.398 14.5335 197.266 14.3239 197.102 14.1416C196.942 13.9548 196.744 13.8066 196.507 13.6973C196.27 13.5879 195.992 13.5332 195.673 13.5332C195.326 13.5332 195.028 13.6061 194.777 13.752C194.531 13.8932 194.328 14.0892 194.169 14.3398C194.014 14.5859 193.898 14.873 193.82 15.2012C193.747 15.5247 193.711 15.8711 193.711 16.2402Z" fill="#3F4042"/>
<path d="M121.16 8.33325H116.84C114.334 8.33325 114.14 10.5866 115.494 11.8133L122.507 18.1866C123.86 19.4133 123.667 21.6666 121.16 21.6666H116.84C114.334 21.6666 114.14 19.4133 115.494 18.1866L122.507 11.8133C123.86 10.5866 123.667 8.33325 121.16 8.33325Z" stroke="#3F4042" stroke-linecap="round" stroke-linejoin="round"/>
</svg>
