<svg width="78" height="78" viewBox="0 0 78 78" fill="none" xmlns="http://www.w3.org/2000/svg">
<circle cx="39" cy="39" r="39" fill="#386AFF"/>
<g clip-path="url(#clip0_93_5492)">
<path d="M40.5209 28.6864L40.5209 37.4206L49.2098 37.4206C49.4079 37.4144 49.6052 37.4483 49.7899 37.5203C49.9746 37.5922 50.1429 37.7007 50.2846 37.8392C50.5847 38.1393 50.7532 38.5462 50.7532 38.9706C50.7532 39.3949 50.5847 39.8019 50.2846 40.102C50.1485 40.2433 49.985 40.3554 49.8041 40.4312C49.6231 40.5071 49.4286 40.5452 49.2324 40.5432L40.4869 40.4866L40.4869 49.2887C40.491 49.6576 40.3533 50.014 40.1023 50.2843C39.8022 50.5844 39.3952 50.7529 38.9709 50.7529C38.5465 50.7529 38.1396 50.5844 37.8395 50.2843C37.6893 50.1461 37.5696 49.9782 37.4878 49.7912C37.406 49.6042 37.3639 49.4023 37.3643 49.1982L37.4209 40.5206L28.7094 40.5206C28.515 40.5237 28.322 40.4883 28.1414 40.4165C27.9608 40.3446 27.7962 40.2377 27.6572 40.102C27.3571 39.8019 27.1885 39.3949 27.1885 38.9706C27.1886 38.5462 27.3571 38.1393 27.6572 37.8392C27.7932 37.6979 27.9568 37.5858 28.1377 37.51C28.3186 37.4341 28.5132 37.396 28.7094 37.398L37.4548 37.4546L37.4549 28.6525C37.4508 28.2836 37.5885 27.9272 37.8395 27.6569C38.1396 27.3568 38.5465 27.1883 38.9709 27.1883C39.3952 27.1883 39.8022 27.3568 40.1023 27.6569C40.3704 27.9318 40.5209 28.3018 40.5209 28.6864Z" fill="white"/>
</g>
<defs>
<clipPath id="clip0_93_5492">
<rect width="24" height="24" fill="white" transform="translate(38.9707 22) rotate(45)"/>
</clipPath>
</defs>
</svg>
