<svg width="31" height="30" viewBox="0 0 31 30" fill="none" xmlns="http://www.w3.org/2000/svg">
<path d="M22.8308 13.4875V18.4875C22.8308 18.8125 22.8181 19.125 22.78 19.425C22.4879 22.8 20.469 24.475 16.7485 24.475H16.2406C15.9231 24.475 15.6184 24.625 15.4279 24.875L13.9042 26.875C13.2312 27.7625 12.1392 27.7625 11.4662 26.875L9.94242 24.875C9.84078 24.7585 9.71656 24.6631 9.57702 24.5944C9.43748 24.5257 9.28542 24.4851 9.12976 24.475H8.62184C4.57121 24.475 2.53955 23.4875 2.53955 18.4875V13.4875C2.53955 9.825 4.25377 7.8375 7.6695 7.55C7.97425 7.5125 8.29169 7.5 8.62184 7.5H16.7485C20.7991 7.5 22.8308 9.5 22.8308 13.4875Z" stroke="black" stroke-width="1.5" stroke-miterlimit="10" stroke-linecap="round" stroke-linejoin="round"/>
<path d="M27.9099 8.4875V13.4875C27.9099 17.1625 26.1957 19.1375 22.7799 19.425C22.818 19.125 22.8307 18.8125 22.8307 18.4875V13.4875C22.8307 9.5 20.7991 7.5 16.7484 7.5H8.62178C8.29163 7.5 7.97418 7.5125 7.66943 7.55C7.96149 4.1875 9.98045 2.5 13.7009 2.5H21.8276C25.8782 2.5 27.9099 4.5 27.9099 8.4875V8.4875Z" stroke="black" stroke-width="1.5" stroke-miterlimit="10" stroke-linecap="round" stroke-linejoin="round"/>
<path d="M17.1356 16.5625H17.1483M12.6913 16.5625H12.704M8.24707 16.5625H8.25977" stroke="black" stroke-width="2" stroke-linecap="round" stroke-linejoin="round"/>
</svg>
