<svg width="80" height="26" viewBox="0 0 80 26" fill="none" xmlns="http://www.w3.org/2000/svg">
<rect y="0.333374" width="80" height="25" rx="12" fill="#386AFF"/>
<path d="M24.0684 13.4779H21.8945L21.8828 12.4056H23.7812C24.1016 12.4056 24.373 12.3588 24.5957 12.265C24.8223 12.1674 24.9941 12.0287 25.1113 11.849C25.2285 11.6654 25.2871 11.4447 25.2871 11.1869C25.2871 10.9017 25.2324 10.6693 25.123 10.4896C25.0137 10.3099 24.8457 10.1791 24.6191 10.097C24.3965 10.015 24.1113 9.974 23.7637 9.974H22.3398V17.3334H20.8691V8.80212H23.7637C24.2324 8.80212 24.6504 8.84705 25.0176 8.93689C25.3887 9.02673 25.7031 9.16736 25.9609 9.35876C26.2227 9.54626 26.4199 9.78455 26.5527 10.0736C26.6895 10.3627 26.7578 10.7064 26.7578 11.1049C26.7578 11.4564 26.6738 11.7787 26.5059 12.0717C26.3379 12.3607 26.0898 12.597 25.7617 12.7806C25.4336 12.9642 25.0254 13.0736 24.5371 13.1088L24.0684 13.4779ZM24.0039 17.3334H21.4316L22.0938 16.1674H24.0039C24.3359 16.1674 24.6133 16.1127 24.8359 16.0033C25.0586 15.89 25.2246 15.7357 25.334 15.5404C25.4473 15.3412 25.5039 15.1088 25.5039 14.8431C25.5039 14.5658 25.4551 14.3256 25.3574 14.1224C25.2598 13.9154 25.1055 13.7572 24.8945 13.6478C24.6836 13.5345 24.4082 13.4779 24.0684 13.4779H22.416L22.4277 12.4056H24.5781L24.9121 12.8099C25.3809 12.8256 25.7656 12.9291 26.0664 13.1205C26.3711 13.3119 26.5977 13.5599 26.7461 13.8646C26.8945 14.1693 26.9688 14.4974 26.9688 14.849C26.9688 15.392 26.8496 15.847 26.6113 16.2142C26.377 16.5814 26.0391 16.8607 25.5977 17.0521C25.1562 17.2396 24.625 17.3334 24.0039 17.3334ZM29.7285 12.2006V17.3334H28.3164V10.9935H29.6641L29.7285 12.2006ZM31.668 10.9525L31.6562 12.265C31.5703 12.2494 31.4766 12.2377 31.375 12.2299C31.2773 12.222 31.1797 12.2181 31.082 12.2181C30.8398 12.2181 30.627 12.2533 30.4434 12.3236C30.2598 12.39 30.1055 12.4877 29.9805 12.6166C29.8594 12.7416 29.7656 12.8939 29.6992 13.0736C29.6328 13.2533 29.5938 13.4545 29.582 13.6771L29.2598 13.7006C29.2598 13.3021 29.2988 12.933 29.377 12.5931C29.4551 12.2533 29.5723 11.9545 29.7285 11.6967C29.8887 11.4388 30.0879 11.2377 30.3262 11.0931C30.5684 10.9486 30.8477 10.8763 31.1641 10.8763C31.25 10.8763 31.3418 10.8842 31.4395 10.8998C31.541 10.9154 31.6172 10.933 31.668 10.9525ZM32.1309 14.2338V14.099C32.1309 13.642 32.1973 13.2181 32.3301 12.8275C32.4629 12.433 32.6543 12.0912 32.9043 11.8021C33.1582 11.5092 33.4668 11.2826 33.8301 11.1224C34.1973 10.9584 34.6113 10.8763 35.0723 10.8763C35.5371 10.8763 35.9512 10.9584 36.3145 11.1224C36.6816 11.2826 36.9922 11.5092 37.2461 11.8021C37.5 12.0912 37.6934 12.433 37.8262 12.8275C37.959 13.2181 38.0254 13.642 38.0254 14.099V14.2338C38.0254 14.6908 37.959 15.1146 37.8262 15.5052C37.6934 15.8959 37.5 16.2377 37.2461 16.5306C36.9922 16.8197 36.6836 17.0463 36.3203 17.2103C35.957 17.3705 35.5449 17.4506 35.084 17.4506C34.6191 17.4506 34.2031 17.3705 33.8359 17.2103C33.4727 17.0463 33.1641 16.8197 32.9102 16.5306C32.6562 16.2377 32.4629 15.8959 32.3301 15.5052C32.1973 15.1146 32.1309 14.6908 32.1309 14.2338ZM33.543 14.099V14.2338C33.543 14.5189 33.5723 14.7885 33.6309 15.0424C33.6895 15.2963 33.7812 15.5189 33.9062 15.7103C34.0312 15.9017 34.1914 16.0521 34.3867 16.1615C34.582 16.2709 34.8145 16.3256 35.084 16.3256C35.3457 16.3256 35.5723 16.2709 35.7637 16.1615C35.959 16.0521 36.1191 15.9017 36.2441 15.7103C36.3691 15.5189 36.4609 15.2963 36.5195 15.0424C36.582 14.7885 36.6133 14.5189 36.6133 14.2338V14.099C36.6133 13.8177 36.582 13.5521 36.5195 13.3021C36.4609 13.0482 36.3672 12.8236 36.2383 12.6283C36.1133 12.433 35.9531 12.2806 35.7578 12.1713C35.5664 12.058 35.3379 12.0013 35.0723 12.0013C34.8066 12.0013 34.5762 12.058 34.3809 12.1713C34.1895 12.2806 34.0312 12.433 33.9062 12.6283C33.7812 12.8236 33.6895 13.0482 33.6309 13.3021C33.5723 13.5521 33.543 13.8177 33.543 14.099ZM40.9316 15.9271L42.3965 10.9935H43.2988L43.0527 12.4701L41.5762 17.3334H40.7676L40.9316 15.9271ZM40.0703 10.9935L41.2129 15.9506L41.3066 17.3334H40.4043L38.6875 10.9935H40.0703ZM44.6699 15.892L45.7773 10.9935H47.1543L45.4434 17.3334H44.541L44.6699 15.892ZM43.4512 10.9935L44.8984 15.8685L45.0801 17.3334H44.2715L42.7773 12.4642L42.5312 10.9935H43.4512ZM51.6719 15.6166C51.6719 15.476 51.6367 15.349 51.5664 15.2357C51.4961 15.1185 51.3613 15.0131 51.1621 14.9193C50.9668 14.8256 50.6777 14.7396 50.2949 14.6615C49.959 14.5873 49.6504 14.4994 49.3691 14.3978C49.0918 14.2924 48.8535 14.1654 48.6543 14.017C48.4551 13.8685 48.3008 13.6927 48.1914 13.4896C48.082 13.2865 48.0273 13.0521 48.0273 12.7865C48.0273 12.5287 48.084 12.2845 48.1973 12.0541C48.3105 11.8236 48.4727 11.6205 48.6836 11.4447C48.8945 11.2689 49.1504 11.1302 49.4512 11.0287C49.7559 10.9271 50.0957 10.8763 50.4707 10.8763C51.002 10.8763 51.457 10.9662 51.8359 11.1459C52.2188 11.3217 52.5117 11.5619 52.7148 11.8666C52.918 12.1674 53.0195 12.5072 53.0195 12.8861H51.6074C51.6074 12.7181 51.5645 12.5619 51.4785 12.4174C51.3965 12.2689 51.2715 12.1498 51.1035 12.0599C50.9355 11.9662 50.7246 11.9193 50.4707 11.9193C50.2285 11.9193 50.0273 11.9584 49.8672 12.0365C49.7109 12.1107 49.5938 12.2084 49.5156 12.3295C49.4414 12.4506 49.4043 12.5834 49.4043 12.7279C49.4043 12.8334 49.4238 12.9291 49.4629 13.015C49.5059 13.097 49.5762 13.1732 49.6738 13.2435C49.7715 13.3099 49.9043 13.3724 50.0723 13.431C50.2441 13.4896 50.459 13.5463 50.7168 13.601C51.2012 13.7025 51.6172 13.8334 51.9648 13.9935C52.3164 14.1498 52.5859 14.3529 52.7734 14.6029C52.9609 14.849 53.0547 15.1615 53.0547 15.5404C53.0547 15.8217 52.9941 16.0795 52.873 16.3138C52.7559 16.5443 52.584 16.7455 52.3574 16.9174C52.1309 17.0853 51.8594 17.2162 51.543 17.3099C51.2305 17.4037 50.8789 17.4506 50.4883 17.4506C49.9141 17.4506 49.4277 17.349 49.0293 17.1459C48.6309 16.9388 48.3281 16.6752 48.1211 16.3549C47.918 16.0306 47.8164 15.6947 47.8164 15.347H49.1816C49.1973 15.6088 49.2695 15.8177 49.3984 15.974C49.5312 16.1263 49.6953 16.2377 49.8906 16.308C50.0898 16.3744 50.2949 16.4076 50.5059 16.4076C50.7598 16.4076 50.9727 16.3744 51.1445 16.308C51.3164 16.2377 51.4473 16.1439 51.5371 16.0267C51.627 15.9056 51.6719 15.7689 51.6719 15.6166ZM57.0859 17.4506C56.6172 17.4506 56.1934 17.3744 55.8145 17.222C55.4395 17.0658 55.1191 16.849 54.8535 16.5717C54.5918 16.2943 54.3906 15.9681 54.25 15.5931C54.1094 15.2181 54.0391 14.8138 54.0391 14.3802V14.1459C54.0391 13.6498 54.1113 13.2006 54.2559 12.7982C54.4004 12.3959 54.6016 12.0521 54.8594 11.767C55.1172 11.4779 55.4219 11.2572 55.7734 11.1049C56.125 10.9525 56.5059 10.8763 56.916 10.8763C57.3691 10.8763 57.7656 10.9525 58.1055 11.1049C58.4453 11.2572 58.7266 11.472 58.9492 11.7494C59.1758 12.0228 59.3438 12.349 59.4531 12.7279C59.5664 13.1068 59.623 13.5248 59.623 13.9818V14.5853H54.7246V13.5717H58.2285V13.4603C58.2207 13.2064 58.1699 12.9681 58.0762 12.7455C57.9863 12.5228 57.8477 12.3431 57.6602 12.2064C57.4727 12.0697 57.2227 12.0013 56.9102 12.0013C56.6758 12.0013 56.4668 12.0521 56.2832 12.1537C56.1035 12.2513 55.9531 12.3939 55.832 12.5814C55.7109 12.7689 55.6172 12.9955 55.5508 13.2611C55.4883 13.5228 55.457 13.8177 55.457 14.1459V14.3802C55.457 14.6576 55.4941 14.9154 55.5684 15.1537C55.6465 15.3881 55.7598 15.5931 55.9082 15.7689C56.0566 15.9447 56.2363 16.0834 56.4473 16.1849C56.6582 16.2826 56.8984 16.3314 57.168 16.3314C57.5078 16.3314 57.8105 16.2631 58.0762 16.1263C58.3418 15.9896 58.5723 15.7963 58.7676 15.5463L59.5117 16.267C59.375 16.4662 59.1973 16.6576 58.9785 16.8412C58.7598 17.0209 58.4922 17.1674 58.1758 17.2806C57.8633 17.3939 57.5 17.4506 57.0859 17.4506Z" fill="white"/>
</svg>
