<svg width="15" height="14" viewBox="0 0 15 14" fill="none" xmlns="http://www.w3.org/2000/svg">
<path fill-rule="evenodd" clip-rule="evenodd" d="M7.63997 6.41669C8.60647 6.41669 9.38997 5.63319 9.38997 4.66669C9.38997 3.70019 8.60647 2.91669 7.63997 2.91669C6.67348 2.91669 5.88997 3.70019 5.88997 4.66669C5.88997 5.63319 6.67348 6.41669 7.63997 6.41669ZM7.63997 11.0834C9.57297 11.0834 11.14 10.2999 11.14 9.33335C11.14 8.36686 9.57297 7.58335 7.63997 7.58335C5.70698 7.58335 4.13997 8.36686 4.13997 9.33335C4.13997 10.2999 5.70698 11.0834 7.63997 11.0834ZM4.36261 7.59446C2.92197 7.6833 1.80664 8.2974 1.80664 9.04175C1.80664 9.6554 2.56468 10.1805 3.63809 10.3958C3.39823 10.071 3.26497 9.71155 3.26497 9.33342C3.26497 8.66642 3.67958 8.05753 4.36261 7.59446ZM12.015 9.33342C12.015 9.71155 11.8818 10.071 11.6419 10.3958C12.7153 10.1805 13.4733 9.6554 13.4733 9.04175C13.4733 8.2974 12.358 7.6833 10.9174 7.59446C11.6004 8.05753 12.015 8.66643 12.015 9.33342ZM9.80896 6.14566C10.0967 5.7245 10.265 5.21525 10.265 4.66669C10.265 4.48465 10.2464 4.30695 10.2112 4.13535C10.3203 4.10155 10.4363 4.08335 10.5566 4.08335C11.201 4.08335 11.7233 4.60569 11.7233 5.25002C11.7233 5.89435 11.201 6.41669 10.5566 6.41669C10.2721 6.41669 10.0114 6.31486 9.80896 6.14566ZM4.72331 4.08335C4.84358 4.08335 4.95961 4.10155 5.06878 4.13535C5.0335 4.30695 5.01497 4.48465 5.01497 4.66669C5.01497 5.21525 5.18324 5.7245 5.47097 6.14566C5.2685 6.31486 5.0078 6.41669 4.72331 6.41669C4.07898 6.41669 3.55664 5.89435 3.55664 5.25002C3.55664 4.60569 4.07898 4.08335 4.72331 4.08335Z" fill="#3F4042"/>
</svg>
