<svg width="40" height="40" viewBox="0 0 40 40" fill="none" xmlns="http://www.w3.org/2000/svg">
<path d="M29.9998 10.5H30.4998V10V8.33333C30.4998 7.94696 30.6264 7.66383 30.8117 7.47855C30.997 7.29328 31.2801 7.16667 31.6665 7.16667C32.3584 7.16667 32.8332 7.74309 32.8332 8.33333V10C32.8332 11.5572 31.557 12.8333 29.9998 12.8333H9.99984C8.44265 12.8333 7.1665 11.5572 7.1665 10V8.33333C7.1665 7.94696 7.29311 7.66383 7.47839 7.47855C7.66367 7.29328 7.94679 7.16667 8.33317 7.16667C8.71955 7.16667 9.00267 7.29328 9.18795 7.47855C9.37323 7.66383 9.49984 7.94696 9.49984 8.33333V10V10.5H9.99984H12.4998H12.8183L12.9529 10.2114L15.2834 5.21757C15.4486 4.88723 15.5848 4.62218 15.8534 4.35355C16.5156 3.69132 17.6204 3.52423 18.6362 3.95957L19.8029 4.45957L19.9663 4.5296L20.1372 4.48076L21.3039 4.14743L21.3343 4.13872L21.3635 4.12624C22.3793 3.6909 23.4841 3.85799 24.1463 4.52022L24.2037 4.57759L24.2762 4.61388C24.4343 4.69289 24.5354 4.85626 24.7163 5.21765L27.0467 10.2114L27.1814 10.5H27.4998H29.9998ZM30.1665 34H30.6665V33.5V31.6667C30.6665 31.3429 30.4796 31.0696 30.3037 30.8749C30.1133 30.6641 29.8534 30.4553 29.5517 30.2539C28.9454 29.8492 28.1028 29.4295 27.1194 29.0502C25.1521 28.2914 22.549 27.6667 19.9998 27.6667C17.4507 27.6667 14.8476 28.2914 12.8803 29.0502C11.8968 29.4295 11.0543 29.8492 10.448 30.2539C10.1463 30.4553 9.88635 30.6641 9.69595 30.8749C9.52005 31.0696 9.33317 31.3429 9.33317 31.6667V33.5V34H9.83317H30.1665ZM7.1665 36.1667V31.6667C7.1665 30.7373 7.62628 29.8882 8.46334 29.1149C9.30399 28.3383 10.4921 27.6718 11.8501 27.1288C14.5667 26.0426 17.8369 25.5 19.9998 25.5C22.1628 25.5 25.433 26.0426 28.1496 27.1288C29.5075 27.6718 30.6957 28.3383 31.5363 29.1149C32.3734 29.8882 32.8332 30.7373 32.8332 31.6667V36.1667H7.1665ZM26.1665 15.5V16.6667C26.1665 20.0739 23.407 22.8333 19.9998 22.8333C16.5926 22.8333 13.8332 20.0739 13.8332 16.6667V15.5H16.1665V16.6667C16.1665 17.6833 16.5704 18.6584 17.2893 19.3772C18.0082 20.0961 18.9832 20.5 19.9998 20.5C21.0165 20.5 21.9915 20.0961 22.7104 19.3772C23.4293 18.6584 23.8332 17.6833 23.8332 16.6667V15.5H26.1665Z" stroke="white"/>
</svg>
